<?xml version="1.0" standalone="no"?>
<!DOCTYPE svg PUBLIC "-//W3C//DTD SVG 20010904//EN"
 "http://www.w3.org/TR/2001/REC-SVG-20010904/DTD/svg10.dtd">
<svg version="1.0" xmlns="http://www.w3.org/2000/svg"
 width="300.000000pt" height="300.000000pt" viewBox="0 0 300.000000 300.000000"
 preserveAspectRatio="xMidYMid meet">
<metadata>
Created by potrace 1.14, written by Peter Selinger 2001-2017
</metadata>
<g transform="translate(0.000000,300.000000) scale(0.100000,-0.100000)"
fill="#000000" stroke="none">
<path d="M417 2228 c-46 -12 -103 -64 -112 -101 -9 -33 0 -70 20 -91 22 -22
19 -25 -27 -28 -42 -3 -43 -4 -40 -38 3 -44 45 -85 104 -101 67 -18 179 -7
238 24 l50 26 36 -24 c102 -69 302 -28 371 77 21 30 28 56 31 106 3 48 1 63
-7 57 -8 -4 -11 -2 -10 6 8 50 -81 100 -176 98 l-60 -2 73 -7 c132 -14 197
-88 141 -163 -12 -16 -17 -27 -10 -23 6 4 11 0 11 -10 0 -20 -82 -104 -101
-103 -9 0 -7 4 6 12 30 19 75 64 75 77 0 6 -12 -3 -27 -21 -31 -36 -93 -68
-138 -70 -29 -1 -29 -1 -5 -8 22 -6 23 -8 7 -14 -27 -10 -105 -9 -112 2 -3 5
3 12 12 14 12 3 10 5 -7 6 -14 1 -41 11 -60 22 -23 14 -30 16 -21 6 7 -9 21
-19 32 -22 10 -4 19 -11 19 -16 0 -16 -56 18 -73 45 -9 14 -14 33 -11 43 3 10
-3 5 -15 -12 -22 -33 -74 -65 -106 -66 -11 0 -14 -3 -7 -6 20 -8 3 -23 -26
-22 -24 0 -25 1 -7 9 14 6 0 9 -45 9 -45 1 -60 -2 -50 -9 12 -8 11 -10 -7 -10
-22 0 -40 16 -24 22 4 1 -7 11 -26 20 l-35 16 23 -25 c23 -25 23 -25 2 -14
-24 12 -53 49 -53 67 0 7 27 15 66 19 59 6 68 5 85 -14 23 -25 71 -28 89 -6
11 13 9 20 -10 40 -13 14 -31 25 -39 25 -14 0 -14 -1 -1 -10 13 -8 13 -10 -2
-10 -9 0 -24 3 -33 6 -13 5 -14 8 -3 15 10 7 9 9 -4 9 -9 0 -18 -5 -20 -11 -5
-15 -63 14 -72 36 -21 56 22 115 98 134 63 15 171 14 205 -3 15 -8 32 -26 39
-40 11 -25 10 -26 -23 -26 -18 0 -46 -5 -61 -10 -22 -9 -31 -7 -49 10 -25 24
-44 25 -71 6 -28 -22 -9 -33 74 -45 40 -5 80 -15 88 -22 13 -10 17 -10 25 2 5
8 9 17 9 21 0 3 11 20 25 36 23 28 24 30 7 45 -49 44 -178 61 -275 35z m217
-261 c-2 -7 -14 -19 -27 -26 -21 -13 -21 -12 2 13 27 29 33 32 25 13z m-54
-41 c0 -2 -7 -7 -16 -10 -8 -3 -12 -2 -9 4 6 10 25 14 25 6z m350 0 c0 -2 -7
-7 -16 -10 -8 -3 -12 -2 -9 4 6 10 25 14 25 6z"/>
<path d="M808 2223 c7 -3 16 -2 19 1 4 3 -2 6 -13 5 -11 0 -14 -3 -6 -6z"/>
<path d="M818 2126 c-15 -17 -28 -28 -28 -24 0 4 7 14 16 22 8 9 11 16 6 16
-5 0 -17 -11 -26 -25 -18 -28 -21 -39 -6 -30 7 4 9 -7 5 -32 -7 -45 1 -59 37
-68 61 -15 129 105 81 146 -33 29 -56 27 -85 -5z m85 -38 c14 -41 -41 -105
-75 -87 -23 12 -23 26 2 67 20 33 64 45 73 20z"/>
<path d="M696 1763 c-3 -26 -13 -70 -22 -96 -14 -43 -14 -70 1 -55 14 13 47
180 38 189 -7 7 -12 -6 -17 -38z"/>
<path d="M1394 1792 c-7 -16 -212 -195 -473 -415 l-34 -28 18 -34 c10 -18 27
-44 38 -57 10 -12 6 -1 -9 26 l-28 49 35 31 c19 17 133 113 252 214 120 101
221 190 224 198 9 24 -12 38 -23 16z"/>
<path d="M2111 1772 c23 -67 -17 -167 -77 -194 -30 -14 -31 -28 -1 -21 28 7
65 40 83 75 19 36 18 129 -1 154 -13 17 -14 16 -4 -14z"/>
<path d="M1760 1619 c-6 -24 -13 -50 -16 -57 -2 -8 1 -12 8 -10 15 5 37 83 28
99 -6 8 -12 -3 -20 -32z"/>
<path d="M1830 1576 c0 -2 7 -9 15 -16 9 -7 15 -8 15 -2 0 5 -7 12 -15 16 -8
3 -15 4 -15 2z"/>
<path d="M568 1511 c-1 -5 -67 -11 -145 -13 l-143 -3 -19 -60 c-31 -96 -56
-188 -106 -380 -25 -99 -53 -203 -61 -232 -8 -28 -14 -54 -14 -57 0 -3 71 -6
158 -8 145 -3 158 -2 159 15 1 9 18 74 38 145 35 122 38 129 87 175 l50 48 92
-152 c50 -83 107 -169 126 -191 l35 -39 182 3 182 3 -43 70 c-24 39 -106 172
-183 296 l-140 226 68 57 c64 55 137 128 95 96 -15 -12 -49 -14 -175 -12 -86
2 -158 8 -159 13 -2 5 -22 -5 -45 -23 l-40 -32 6 32 c6 30 3 44 -5 23z"/>
<path d="M2460 1510 c0 -5 5 -10 11 -10 5 0 7 5 4 10 -3 6 -8 10 -11 10 -2 0
-4 -4 -4 -10z"/>
<path d="M1400 1498 c0 -4 -11 -47 -26 -95 -22 -76 -164 -629 -164 -638 0 -2
68 -5 150 -7 122 -2 150 0 150 11 0 7 29 131 65 275 71 290 84 345 91 396 l5
35 -127 1 c-95 1 -128 5 -135 15 -5 8 -9 11 -9 7z"/>
<path d="M1756 1433 c-23 -72 -58 -203 -121 -447 -31 -121 -58 -222 -60 -225
-2 -4 65 -6 149 -6 128 0 152 2 153 15 1 8 31 134 67 280 74 304 99 420 91
428 -3 3 -5 0 -5 -7 0 -14 -227 -13 -247 1 -8 6 -16 -6 -27 -39z"/>
<path d="M2101 1402 c-21 -70 -51 -183 -125 -469 l-44 -172 152 -3 c130 -3
152 -1 153 12 4 50 89 353 110 392 40 74 86 113 134 113 50 0 69 -22 69 -80 0
-33 -47 -235 -96 -412 -6 -22 -6 -22 163 -25 162 -3 168 -2 170 17 1 11 24
108 51 215 63 245 75 310 67 364 -8 49 -43 115 -53 100 -9 -14 -313 -16 -329
-3 -12 11 -89 -27 -113 -56 -21 -25 -28 -17 -23 23 l5 37 -100 -3 c-56 -2
-116 1 -136 6 l-35 10 -20 -66z"/>
<path d="M2937 1423 c12 -30 14 -58 10 -128 -4 -49 -11 -106 -17 -125 -6 -19
-33 -122 -60 -229 -27 -106 -55 -200 -61 -207 -8 -10 -55 -14 -193 -17 l-181
-2 191 -3 c143 -1 194 1 202 11 9 10 81 289 127 490 20 90 19 153 -5 205 -24
52 -35 56 -13 5z"/>
<path d="M2465 1230 c-59 -24 -99 -108 -151 -320 -21 -85 -44 -163 -52 -172
-13 -15 -38 -18 -176 -21 l-161 -3 180 1 180 0 46 182 c26 100 57 202 70 228
25 50 70 95 95 95 9 0 12 5 9 10 -7 12 -13 12 -40 0z"/>
<path d="M529 1047 c-14 -13 -29 -36 -32 -53 -21 -93 -68 -259 -75 -266 -5 -5
-88 -8 -186 -6 -143 2 -173 1 -159 -9 12 -9 65 -13 178 -13 114 0 166 4 177
13 8 6 32 75 51 152 32 122 40 143 67 166 16 14 27 29 23 32 -10 11 -16 8 -44
-16z"/>
<path d="M1069 1055 c5 -11 17 -29 26 -40 l16 -20 -10 20 c-5 11 -17 29 -26
40 l-16 20 10 -20z"/>
<path d="M1131 953 c35 -59 49 -78 49 -69 0 11 -60 106 -67 106 -2 0 6 -17 18
-37z"/>
<path d="M1524 730 c-7 -7 -128 -10 -367 -8 -196 2 -353 0 -348 -5 11 -11 746
-4 744 8 -2 14 -17 17 -29 5z"/>
<path d="M1885 730 c-4 -6 -69 -10 -162 -10 -86 0 -154 -3 -150 -6 7 -7 312
-5 332 2 8 4 12 10 9 15 -7 12 -21 11 -29 -1z"/>
</g>
</svg>
