<svg width="230" height="227" viewBox="0 0 230 227" fill="none" xmlns="http://www.w3.org/2000/svg">
<path d="M33.8834 206.946C-10.909 181.084 -10.909 139.151 33.8834 113.309C78.6758 87.4666 151.302 87.4468 196.109 113.309C240.916 139.17 240.902 181.104 196.109 206.946C151.317 232.788 78.6808 232.813 33.8834 206.946Z" fill="#F5F5F5"/>
<path d="M69.7349 208.195C89.173 208.195 104.931 199.098 104.931 187.877C104.931 176.656 89.173 167.559 69.7349 167.559C50.2968 167.559 34.5391 176.656 34.5391 187.877C34.5391 199.098 50.2968 208.195 69.7349 208.195Z" fill="#E0E0E0"/>
<path d="M151.083 178.381C175.488 165.218 189.963 144.702 183.412 132.557C176.862 120.412 151.767 121.237 127.362 134.4C102.956 147.563 88.4819 168.079 95.0323 180.224C101.583 192.369 126.677 191.544 151.083 178.381Z" fill="#E0E0E0"/>
<path d="M155.363 159.53C160.243 153.713 167.887 149.923 176.483 147.684C184.975 145.479 186.496 140.252 180.868 138.563C174.492 136.641 166.535 140.168 161.402 145.078C152.464 153.634 151.34 160.169 151.34 160.169L155.363 159.53Z" fill="#071789"/>
<path opacity="0.15" d="M155.363 159.53C160.243 153.713 167.887 149.923 176.483 147.684C184.975 145.479 186.496 140.252 180.868 138.563C174.492 136.641 166.535 140.168 161.402 145.078C152.464 153.634 151.34 160.169 151.34 160.169L155.363 159.53Z" fill="black"/>
<path d="M152.85 159.178C152.814 159.186 152.777 159.186 152.741 159.178C152.712 159.164 152.685 159.144 152.664 159.12C152.642 159.095 152.626 159.067 152.615 159.036C152.604 159.005 152.6 158.972 152.602 158.94C152.604 158.907 152.613 158.875 152.627 158.846C159.87 143.983 175.912 140.327 179.797 140.604C179.862 140.609 179.922 140.64 179.964 140.689C180.007 140.738 180.029 140.802 180.025 140.867C180.018 140.932 179.987 140.992 179.937 141.035C179.887 141.077 179.822 141.099 179.757 141.095C175.952 140.807 160.202 144.429 153.073 159.064C153.048 159.101 153.015 159.13 152.976 159.15C152.937 159.17 152.894 159.18 152.85 159.178Z" fill="white"/>
<path d="M151.34 161.076C151.34 161.315 151.404 161.549 151.524 161.756C151.645 161.962 151.818 162.133 152.026 162.251C152.234 162.368 152.469 162.429 152.708 162.426C152.947 162.424 153.181 162.358 153.386 162.235C157.924 159.594 164.543 158.133 175.255 161.185C180.952 162.805 183.756 161.72 184.955 159.401C186.293 156.825 183.469 154.333 180.249 153.159C169.285 149.151 159.391 151.885 151.34 159.882V161.076Z" fill="#071789"/>
<path d="M151.97 161.289C151.935 161.289 151.9 161.283 151.868 161.269C151.836 161.255 151.806 161.235 151.782 161.209C151.736 161.162 151.711 161.099 151.711 161.034C151.711 160.968 151.736 160.905 151.782 160.858C161.25 152.396 175.915 154.045 181.464 157.345C181.52 157.378 181.561 157.432 181.578 157.495C181.594 157.558 181.585 157.625 181.553 157.682C181.519 157.738 181.464 157.779 181.4 157.796C181.336 157.813 181.268 157.804 181.211 157.771C175.761 154.536 161.394 152.926 152.114 161.239C152.072 161.269 152.022 161.286 151.97 161.289Z" fill="white"/>
<path d="M75.4098 180.804C71.2481 174.453 64.104 169.786 55.8302 166.55C47.6654 163.36 46.7686 157.994 52.5553 156.974C59.1149 155.819 66.601 160.263 71.1193 165.743C78.9869 175.295 79.3287 181.929 79.3287 181.929L75.4098 180.804Z" fill="#071789"/>
<path opacity="0.15" d="M75.4098 180.804C71.2481 174.453 64.104 169.786 55.8302 166.55C47.6654 163.36 46.7686 157.994 52.5553 156.974C59.1149 155.819 66.601 160.263 71.1193 165.743C78.9869 175.295 79.3287 181.929 79.3287 181.929L75.4098 180.804Z" fill="black"/>
<path d="M77.928 180.764C77.9639 180.771 78.001 180.771 78.037 180.764C78.0988 180.742 78.1494 180.696 78.1781 180.637C78.2068 180.578 78.2113 180.51 78.1905 180.447C72.7407 164.836 57.2633 159.312 53.3593 159.144C53.2944 159.141 53.231 159.164 53.1828 159.207C53.1346 159.251 53.1055 159.312 53.1016 159.376C53.1002 159.442 53.124 159.506 53.1682 159.555C53.2125 159.604 53.2737 159.634 53.3394 159.639C57.1543 159.798 72.3642 165.252 77.7199 180.626C77.7391 180.665 77.7686 180.699 77.8051 180.723C77.8417 180.748 77.8841 180.762 77.928 180.764Z" fill="white"/>
<path d="M79.3634 181.626C79.3246 181.979 79.1956 182.315 78.989 182.602C78.7825 182.89 78.5052 183.12 78.184 183.269C77.8628 183.419 77.5086 183.483 77.1554 183.455C76.8023 183.428 76.4621 183.31 76.1678 183.113C71.9665 180.299 65.7092 178.471 55.4586 180.14C49.6124 181.077 46.9569 179.645 46.0453 177.222C45.0247 174.507 48.1261 172.372 51.4604 171.584C62.8208 168.899 72.3232 172.783 79.3733 181.666L79.3634 181.626Z" fill="#071789"/>
<path d="M78.5795 182.959C78.6141 182.964 78.6494 182.961 78.6828 182.951C78.7162 182.941 78.7469 182.923 78.7728 182.9C78.8185 182.853 78.844 182.79 78.844 182.724C78.844 182.658 78.8185 182.595 78.7728 182.548C70.3503 173.031 55.6111 172.937 49.7104 175.557C49.65 175.584 49.6027 175.634 49.579 175.696C49.5553 175.758 49.5572 175.826 49.5841 175.887C49.611 175.947 49.6609 175.995 49.7227 176.018C49.7845 176.042 49.8531 176.04 49.9136 176.013C55.6953 173.442 70.1621 173.536 78.4012 182.875C78.4227 182.902 78.4499 182.923 78.4808 182.937C78.5116 182.952 78.5454 182.959 78.5795 182.959Z" fill="white"/>
<path d="M159.811 67.6066L159.732 67.567L140.846 56.6971L140.732 56.6426C131.908 52.1837 120.137 53.5263 107.473 61.7109C82.0375 78.1594 62.656 116.021 64.1819 146.277C64.9399 161.353 70.7564 171.693 79.5405 176.241L79.6148 176.281L98.5058 187.156L98.595 187.205C107.419 191.664 119.2 190.341 131.873 182.147C157.309 165.698 176.691 127.837 175.165 97.5805C174.417 82.4945 168.6 72.1547 159.811 67.6066Z" fill="#37474F"/>
<path d="M97.8581 186.804L79.6409 176.271L79.5517 176.216C70.7676 171.658 64.9561 161.318 64.1931 146.262C63.5144 132.766 66.9973 117.77 73.3092 103.843L73.433 103.536L92.2002 114.713C85.8784 128.639 82.4054 143.636 83.0841 157.132C83.8025 171.891 89.3861 182.107 97.8581 186.804Z" fill="#263238"/>
<path d="M131.882 182.137C157.318 165.688 176.699 127.827 175.173 97.5706C173.647 67.3143 151.789 56.1273 126.353 72.5758C100.917 89.0243 81.531 126.886 83.0569 157.137C84.5828 187.388 106.446 198.585 131.882 182.137Z" fill="#455A64"/>
<path d="M153.422 65.2582L121.541 130.938L114.679 123.507C112.633 121.376 109.833 120.134 106.881 120.045C103.929 119.957 101.059 121.03 98.8893 123.033C96.7194 125.037 95.4219 127.812 95.2756 130.762C95.1292 133.712 96.1457 136.602 98.1066 138.811L116.185 158.395C118.173 160.555 120.928 161.85 123.859 162.002C124.067 162.002 124.276 162.002 124.484 162.002C125.031 162.002 125.577 161.962 126.119 161.883C127.938 161.618 129.666 160.912 131.149 159.825C132.633 158.739 133.828 157.305 134.63 155.651L171.193 80.3442C167.443 71.9813 161.2 66.799 153.422 65.2582Z" fill="#37474F"/>
<path d="M179.316 43.6275C179.118 43.5135 178.91 43.4045 178.702 43.3054C176.365 42.1731 173.674 42.014 171.22 42.8629C168.767 43.7118 166.75 45.4995 165.612 47.8337L125.046 131.394L122.737 128.917C122.071 128.189 121.295 127.569 120.438 127.079C119.229 126.385 114.087 123.408 113.254 122.927C111.226 121.753 108.843 121.346 106.54 121.779C104.236 122.212 102.165 123.457 100.701 125.287C99.2365 127.117 98.4774 129.412 98.5609 131.754C98.6445 134.097 99.5651 136.331 101.156 138.053L119.234 157.632C119.912 158.368 120.699 158.995 121.568 159.49C122.747 160.159 127.87 163.132 128.712 163.617C129.877 164.292 131.169 164.719 132.506 164.872C133.843 165.025 135.198 164.901 136.485 164.507C137.773 164.114 138.965 163.459 139.988 162.584C141.011 161.708 141.842 160.632 142.431 159.421L190.424 60.5665C191.503 58.3385 191.699 55.7849 190.974 53.4179C190.249 51.0509 188.656 49.0455 186.515 47.804L179.316 43.6275Z" fill="#071789"/>
<path opacity="0.15" d="M179.316 43.6275C179.118 43.5135 178.91 43.4045 178.702 43.3054C176.365 42.1731 173.674 42.014 171.22 42.8629C168.767 43.7118 166.75 45.4995 165.612 47.8337L125.046 131.394L122.737 128.917C122.071 128.189 121.295 127.569 120.438 127.079C119.229 126.385 114.087 123.408 113.254 122.927C111.226 121.753 108.843 121.346 106.54 121.779C104.236 122.212 102.165 123.457 100.701 125.287C99.2365 127.117 98.4774 129.412 98.5609 131.754C98.6445 134.097 99.5651 136.331 101.156 138.053L119.234 157.632C119.912 158.368 120.699 158.995 121.568 159.49C122.747 160.159 127.87 163.132 128.712 163.617C129.877 164.292 131.169 164.719 132.506 164.872C133.843 165.025 135.198 164.901 136.485 164.507C137.773 164.114 138.965 163.459 139.988 162.584C141.011 161.708 141.842 160.632 142.431 159.421L190.424 60.5665C191.503 58.3385 191.699 55.7849 190.974 53.4179C190.249 51.0509 188.656 49.0455 186.515 47.804L179.316 43.6275Z" fill="black"/>
<path opacity="0.15" d="M128.689 163.597C127.856 163.102 122.743 160.129 121.549 159.47C120.681 158.974 119.894 158.348 119.216 157.613L101.137 138.033C100.34 137.163 99.7073 136.156 99.2695 135.06L106.458 139.207C106.894 140.306 107.531 141.314 108.336 142.18L126.41 161.759C127.075 162.481 127.843 163.1 128.689 163.597Z" fill="black"/>
<path opacity="0.15" d="M175.076 48.9732C174.132 49.8207 173.361 50.8438 172.807 51.9854L131.081 137.934L125.047 131.394L165.613 47.8337C166.166 46.69 166.939 45.6664 167.887 44.8214L175.076 48.9732Z" fill="black"/>
<path d="M185.892 47.4572C183.555 46.3275 180.866 46.1698 178.413 47.0185C175.96 47.8672 173.942 49.6531 172.803 51.9854L131.077 137.934L122.739 128.897C120.955 127.084 118.535 126.037 115.992 125.978C113.449 125.918 110.983 126.851 109.115 128.578C107.248 130.305 106.126 132.691 105.987 135.23C105.848 137.77 106.703 140.264 108.371 142.185L126.445 161.769C127.527 162.94 128.878 163.828 130.381 164.358C131.885 164.888 133.495 165.043 135.071 164.81C136.648 164.577 138.144 163.962 139.43 163.019C140.715 162.077 141.751 160.835 142.448 159.401L190.441 60.5466C191.571 58.2074 191.728 55.515 190.875 53.0608C190.022 50.6065 188.23 48.5911 185.892 47.4572Z" fill="#071789"/>
<path d="M121.946 32.2997C132.083 32.2997 140.302 25.1018 140.302 16.2228C140.302 7.34376 132.083 0.145874 121.946 0.145874C111.808 0.145874 103.59 7.34376 103.59 16.2228C103.59 25.1018 111.808 32.2997 121.946 32.2997Z" fill="#071789"/>
<path d="M107.294 25.5221C107.19 27.6772 105.367 31.5317 102.072 32.9536C102.028 32.9724 101.991 33.0044 101.967 33.0454C101.942 33.0863 101.93 33.134 101.934 33.1817C101.938 33.2293 101.957 33.2746 101.988 33.311C102.019 33.3475 102.061 33.3732 102.107 33.3847C103.99 33.8021 105.955 33.6606 107.759 32.9777C109.563 32.2947 111.129 31.1 112.263 29.5401L107.294 25.5221Z" fill="#071789"/>
<path d="M109.497 14.9495C109.538 14.2449 109.706 13.5535 109.992 12.9083C110.262 12.2771 110.664 11.7111 111.172 11.2486C111.707 10.7582 112.333 10.3763 113.015 10.124C114.648 9.56903 116.419 9.56903 118.053 10.124C118.741 10.3751 119.373 10.757 119.916 11.2486C120.421 11.7206 120.82 12.2948 121.085 12.9331C121.371 13.5783 121.539 14.2697 121.581 14.9743C121.605 15.5292 121.615 16.1088 121.615 16.7133C121.615 17.3177 121.615 17.8875 121.581 18.4126C121.539 19.1172 121.371 19.8086 121.085 20.4538C120.813 21.0863 120.411 21.6549 119.906 22.1234C119.367 22.6197 118.733 23.0022 118.043 23.2481C116.407 23.7896 114.641 23.7896 113.005 23.2481C112.317 23.0027 111.687 22.62 111.152 22.1234C110.645 21.6564 110.243 21.0874 109.973 20.4538C109.686 19.8086 109.519 19.1172 109.477 18.4126C109.452 17.8875 109.438 17.3177 109.438 16.7133C109.438 16.1088 109.472 15.5044 109.497 14.9495ZM117.969 18.2937C117.969 18.0609 117.994 17.7983 118.009 17.5208C118.023 17.2434 118.009 16.9461 118.009 16.6489C118.009 16.3516 118.009 16.0642 118.009 15.7868C118.009 15.5094 117.979 15.2914 117.969 15.0436C117.948 14.7393 117.879 14.4401 117.766 14.1568C117.659 13.8921 117.501 13.6513 117.3 13.4483C117.088 13.2408 116.835 13.0804 116.557 12.9777C115.881 12.7467 115.147 12.7467 114.471 12.9777C114.192 13.0815 113.937 13.2417 113.723 13.4483C113.524 13.6514 113.367 13.8923 113.262 14.1568C113.149 14.4401 113.08 14.7393 113.059 15.0436C113.029 15.2902 113.012 15.5383 113.01 15.7868C113.01 16.0642 113.01 16.3516 113.01 16.6489C113.01 16.9461 113.01 17.2335 113.01 17.5208C113.012 17.7792 113.029 18.0372 113.059 18.2937C113.089 18.8892 113.324 19.4562 113.723 19.8989C113.96 20.1235 114.242 20.2959 114.55 20.4051C114.858 20.5144 115.186 20.5579 115.512 20.5331C115.836 20.559 116.162 20.5159 116.469 20.4066C116.775 20.2973 117.055 20.1243 117.29 19.8989C117.686 19.4526 117.924 18.8887 117.969 18.2937Z" fill="#FAFAFA"/>
<path d="M135.311 22.7972C135.353 22.8603 135.372 22.9352 135.366 23.0103C135.367 23.0656 135.356 23.1206 135.335 23.1717C135.313 23.2228 135.282 23.269 135.242 23.3075C135.204 23.348 135.158 23.3803 135.107 23.4024C135.055 23.4246 135 23.4361 134.945 23.4363H131.843C131.686 23.4421 131.531 23.4007 131.397 23.3174C131.269 23.2235 131.152 23.1136 131.051 22.9905L127.384 18.3829V22.9062C127.382 23.0398 127.33 23.1678 127.239 23.265C127.147 23.3621 127.022 23.4215 126.889 23.4314H124.352C124.284 23.4319 124.215 23.418 124.152 23.3907C124.089 23.3634 124.032 23.3233 123.986 23.2729C123.936 23.2257 123.897 23.1687 123.871 23.1056C123.844 23.0425 123.831 22.9746 123.832 22.9062V10.4262C123.831 10.3578 123.844 10.2899 123.871 10.2268C123.897 10.1637 123.936 10.1068 123.986 10.0596C124.032 10.0091 124.089 9.969 124.152 9.9417C124.215 9.91441 124.284 9.90055 124.352 9.90102H126.889C127.022 9.9109 127.147 9.97027 127.239 10.0674C127.33 10.1646 127.382 10.2926 127.384 10.4262V14.5036L130.788 10.3271C130.866 10.2338 130.949 10.1445 131.036 10.0596C131.183 9.93981 131.372 9.88286 131.561 9.90102H134.573C134.63 9.90057 134.686 9.91177 134.738 9.93393C134.79 9.9561 134.837 9.98874 134.875 10.0298C134.915 10.0683 134.947 10.1145 134.968 10.1657C134.989 10.2168 135 10.2717 134.999 10.3271C135.004 10.4028 134.983 10.478 134.94 10.5401L130.184 16.4011L135.311 22.7972Z" fill="#FAFAFA"/>
<path d="M169.305 31.4227L166.526 32.26L164.52 25.5567L167.289 24.7244L169.305 31.4227Z" fill="#E0E0E0"/>
<path d="M177.982 25.4725C178.005 25.7444 177.941 26.0167 177.8 26.25C177.658 26.4832 177.446 26.6655 177.194 26.7706C177.375 26.9755 177.508 27.2172 177.586 27.479C177.744 27.9745 177.323 28.6929 176.486 28.9654L170.13 30.8777L168.262 24.6501C168.262 24.6501 169.337 21.9004 169.391 21.4843C169.446 21.0681 168.812 19.5421 168.722 19.2548C168.633 18.9674 169.664 18.5909 170.476 18.9179C170.665 19.0019 170.834 19.1252 170.972 19.2796C171.264 19.5908 171.509 19.943 171.7 20.3249C171.97 20.8694 172.102 21.4714 172.086 22.0788L175.936 20.9046C176.202 20.8085 176.493 20.8085 176.758 20.9046C176.932 20.9733 177.086 21.0858 177.203 21.2312C177.321 21.3766 177.399 21.5499 177.43 21.7344C177.461 21.9188 177.443 22.1081 177.38 22.2839C177.316 22.4597 177.208 22.616 177.066 22.7377C177.295 22.7211 177.523 22.7819 177.713 22.9104C177.904 23.0388 178.046 23.2275 178.116 23.4462C178.175 23.7004 178.144 23.9671 178.028 24.201C177.912 24.435 177.719 24.6216 177.482 24.7294C177.739 24.9027 177.918 25.1692 177.982 25.4725Z" fill="#E0E0E0"/>
<path d="M209.129 100.927L205.566 100.07L207.642 91.4795L211.204 92.3366L209.129 100.927Z" fill="#E0E0E0"/>
<path d="M222.39 99.9614C222.242 100.273 222 100.529 221.697 100.694C221.394 100.858 221.047 100.923 220.706 100.878C220.77 101.216 220.761 101.564 220.681 101.899C220.522 102.567 219.616 103.058 218.546 102.795L210.391 100.814L212.313 92.8321C212.313 92.8321 215.241 90.5184 215.563 90.0972C215.885 89.6761 216.162 87.6201 216.252 87.2386C216.341 86.8571 217.703 87.1147 218.382 87.9916C218.547 88.2047 218.662 88.4518 218.719 88.715C218.839 89.2393 218.883 89.7784 218.848 90.3152C218.794 91.0822 218.556 91.8249 218.154 92.4803L223.079 93.6693C223.428 93.7434 223.74 93.9381 223.961 94.2193C224.083 94.3797 224.169 94.5643 224.215 94.7608C224.26 94.9572 224.263 95.1611 224.223 95.3588C224.157 95.6192 224.02 95.8561 223.826 96.0425C223.633 96.229 223.391 96.3577 223.128 96.4141C223.389 96.5417 223.599 96.7533 223.725 97.0148C223.851 97.2763 223.885 97.5725 223.822 97.8558C223.721 98.1689 223.517 98.4382 223.242 98.6185C222.967 98.7988 222.638 98.8794 222.311 98.8467C222.481 99.1938 222.51 99.5936 222.39 99.9614Z" fill="#E0E0E0"/>
<path d="M29.1953 95.7898L33.0845 96.9591L35.8986 87.5755L32.0143 86.4062L29.1953 95.7898Z" fill="#E0E0E0"/>
<path d="M17.0429 87.4516C17.0104 87.8327 17.1 88.2142 17.2986 88.541C17.4972 88.8679 17.7945 89.1231 18.1477 89.2699C17.898 89.5579 17.7122 89.8957 17.6027 90.2608C17.3798 90.9891 17.9743 91.9651 19.1386 92.3119L28.0564 94.9922L30.6624 86.2576C30.6624 86.2576 29.1513 82.4031 29.077 81.7987C29.0027 81.1943 29.8945 79.0837 30.0134 78.6775C30.1125 78.3505 28.6955 77.751 27.5362 78.2117C27.2606 78.3198 27.0132 78.4892 26.8129 78.7072C26.4012 79.1495 26.0573 79.6504 25.7923 80.1935C25.4126 80.9629 25.2256 81.813 25.2473 82.6707L19.8966 81.0556C19.5193 80.9314 19.1101 80.9455 18.7422 81.0952C18.4984 81.1912 18.2836 81.3487 18.1187 81.5524C17.9539 81.7561 17.8447 81.9991 17.8018 82.2576C17.7589 82.5161 17.7837 82.7813 17.8739 83.0274C17.964 83.2735 18.1164 83.4919 18.3161 83.6615C17.9928 83.6338 17.6696 83.7168 17.3995 83.8968C17.1295 84.0768 16.9286 84.3433 16.8298 84.6524C16.7475 85.0092 16.7907 85.3834 16.9523 85.7119C17.1139 86.0405 17.3838 86.3032 17.7167 86.4558C17.3772 86.6936 17.1373 87.0481 17.0429 87.4516Z" fill="#E0E0E0"/>
</svg>
