<svg width="16" height="17" viewBox="0 0 16 17" fill="none" xmlns="http://www.w3.org/2000/svg">
<path fill-rule="evenodd" clip-rule="evenodd" d="M8.19125 6.80912L12.5312 2.46912C12.9622 2.03812 13.6623 2.03812 14.0933 2.46912C14.5243 2.90012 14.5243 3.60012 14.0933 4.03112L9.75325 8.37112L14.0933 12.7111C14.5153 13.1321 14.5153 13.8171 14.0933 14.2391C13.6713 14.6611 12.9862 14.6611 12.5653 14.2391L8.22525 9.89912L3.88525 14.2391C3.45425 14.6701 2.75425 14.6701 2.32325 14.2391C1.89225 13.8081 1.89225 13.1081 2.32325 12.6771L6.66325 8.33712L2.32325 3.99712C1.90125 3.57612 1.90125 2.89112 2.32325 2.46912C2.74525 2.04712 3.43025 2.04712 3.85125 2.46912L8.19125 6.80912Z" fill="#939393"/>
</svg>
