<svg width="194" height="114" viewBox="0 0 194 114" fill="none" xmlns="http://www.w3.org/2000/svg">
<path d="M194 7.90109e-08C194 24.4837 194 42.0871 194 71.1479C174.299 97.1825 143.086 114 107.949 114C48.3602 114 0.054061 65.6311 0.054061 5.96502C0.054061 3.85146 -0.0667524 2.0841 0.0528315 0.000537985C15.9407 0.000785724 43.7418 0 101.33 0C160.573 0 160.573 0 194 7.90109e-08Z" fill="#F4F0EB"/>
<path d="M96 51.2887C100.94 51.2887 104.667 47.562 104.667 42.622C104.667 37.682 100.94 33.9553 96 33.9553C91.06 33.9553 87.3333 37.682 87.3333 42.622C87.3333 47.562 91.06 51.2887 96 51.2887ZM96 38.2887C98.5523 38.2887 100.333 40.0697 100.333 42.622C100.333 45.1743 98.5523 46.9553 96 46.9553C93.4477 46.9553 91.6667 45.1743 91.6667 42.622C91.6667 40.0697 93.4477 38.2887 96 38.2887ZM98.1667 53.4553H93.8333C87.8598 53.4553 83 58.3152 83 64.2887V66.4553H87.3333V64.2887C87.3333 60.705 90.2497 57.7887 93.8333 57.7887H98.1667C101.75 57.7887 104.667 60.705 104.667 64.2887V66.4553H109V64.2887C109 58.3152 104.14 53.4553 98.1667 53.4553ZM118.455 31L115.392 34.0637C118.254 36.9302 119.833 40.7392 119.833 44.7887C119.833 48.8382 118.254 52.6472 115.392 55.5137L118.455 58.5773C122.139 54.8918 124.167 49.9952 124.167 44.7887C124.167 39.5822 122.139 34.6855 118.455 31Z" fill="black"/>
<path d="M112.325 37.127L109.262 40.195C110.49 41.4191 111.166 43.0506 111.166 44.7883C111.166 46.526 110.49 48.1575 109.262 49.3816L112.325 52.4496C114.371 50.4043 115.5 47.6851 115.5 44.7883C115.5 41.8915 114.371 39.1723 112.325 37.127Z" fill="black"/>
</svg>
