<svg width="194" height="114" viewBox="0 0 194 114" fill="none" xmlns="http://www.w3.org/2000/svg">
<path d="M194 7.90109e-08C194 24.4837 194 42.0871 194 71.1479C174.299 97.1825 143.086 114 107.949 114C48.3602 114 0.054061 65.6311 0.054061 5.96502C0.054061 3.85146 -0.0667524 2.0841 0.0528315 0.000537985C15.9407 0.000785724 43.7418 0 101.33 0C160.573 0 160.573 0 194 7.90109e-08Z" fill="#F4F0EB"/>
<path fill-rule="evenodd" clip-rule="evenodd" d="M127.135 18.234C127.361 18.374 127.548 18.5695 127.677 18.8019C127.807 19.0343 127.875 19.296 127.875 19.5621V66.4375C127.875 66.8519 127.711 67.2493 127.418 67.5424C127.125 67.8354 126.727 68 126.313 68H116.938C116.523 68 116.126 67.8354 115.833 67.5424C115.54 67.2493 115.375 66.8519 115.375 66.4375V61.75H112.25V66.4375C112.25 66.8519 112.086 67.2493 111.793 67.5424C111.5 67.8354 111.102 68 110.688 68H82.5625C82.1481 68 81.7507 67.8354 81.4576 67.5424C81.1646 67.2493 81 66.8519 81 66.4375V49.2499C81.0002 48.9221 81.1036 48.6026 81.2954 48.3368C81.4872 48.071 81.7577 47.8722 82.0688 47.7686L99.7501 41.8748V32.0622C99.7501 31.7723 99.8308 31.4881 99.9832 31.2414C100.135 30.9947 100.353 30.7952 100.613 30.6653L125.613 18.1653C125.851 18.0459 126.116 17.9896 126.383 18.0016C126.649 18.0136 126.908 18.0936 127.135 18.234ZM99.7501 45.1686L84.125 50.3749V64.875H99.7501V45.1686ZM102.875 64.875H109.125V60.1874C109.125 59.773 109.29 59.3756 109.583 59.0826C109.876 58.7896 110.273 58.6249 110.688 58.6249H116.938C117.352 58.6249 117.75 58.7896 118.043 59.0826C118.336 59.3756 118.5 59.773 118.5 60.1874V64.875H124.75V22.0903L102.875 33.0279V64.875Z" fill="black"/>
<path d="M87.25 52.3753H90.375V55.5003H87.25V52.3753ZM93.5 52.3753H96.6251V55.5003H93.5V52.3753ZM87.25 58.6254H90.375V61.7504H87.25V58.6254ZM93.5 58.6254H96.6251V61.7504H93.5V58.6254ZM106 46.1253H109.125V49.2503H106V46.1253ZM112.25 46.1253H115.375V49.2503H112.25V46.1253ZM106 52.3753H109.125V55.5003H106V52.3753ZM112.25 52.3753H115.375V55.5003H112.25V52.3753ZM118.5 46.1253H121.625V49.2503H118.5V46.1253ZM118.5 52.3753H121.625V55.5003H118.5V52.3753ZM106 39.8752H109.125V43.0002H106V39.8752ZM112.25 39.8752H115.375V43.0002H112.25V39.8752ZM118.5 39.8752H121.625V43.0002H118.5V39.8752ZM106 33.6252H109.125V36.7502H106V33.6252ZM112.25 33.6252H115.375V36.7502H112.25V33.6252ZM118.5 33.6252H121.625V36.7502H118.5V33.6252ZM118.5 27.3751H121.625V30.5001H118.5V27.3751Z" fill="black"/>
</svg>
