<svg width="10" height="10" viewBox="0 0 10 10" fill="none" xmlns="http://www.w3.org/2000/svg">
<g clip-path="url(#clip0_7220_6122)">
<path d="M6.64908 4.06332C6.64908 3.35147 6.39608 2.74255 5.89009 2.23656C5.3841 1.73057 4.77518 1.47757 4.06332 1.47757C3.35147 1.47757 2.74255 1.73057 2.23656 2.23656C1.73057 2.74255 1.47757 3.35147 1.47757 4.06332C1.47757 4.77518 1.73057 5.3841 2.23656 5.89009C2.74255 6.39608 3.35147 6.64908 4.06332 6.64908C4.77518 6.64908 5.3841 6.39608 5.89009 5.89009C6.39608 5.3841 6.64908 4.77518 6.64908 4.06332ZM9.60422 8.86544C9.60422 9.06552 9.53111 9.23868 9.38489 9.38489C9.23868 9.53111 9.06552 9.60422 8.86544 9.60422C8.65765 9.60422 8.4845 9.53111 8.34598 9.38489L6.36626 7.41095C5.6775 7.88808 4.90985 8.12665 4.06332 8.12665C3.51308 8.12665 2.98689 8.01987 2.48475 7.80632C1.9826 7.59276 1.54972 7.30417 1.1861 6.94055C0.822477 6.57693 0.533889 6.14405 0.320333 5.6419C0.106778 5.13976 0 4.61357 0 4.06332C0 3.51308 0.106778 2.98689 0.320333 2.48475C0.533889 1.9826 0.822477 1.54972 1.1861 1.1861C1.54972 0.822477 1.9826 0.533889 2.48475 0.320333C2.98689 0.106778 3.51308 0 4.06332 0C4.61357 0 5.13976 0.106778 5.6419 0.320333C6.14405 0.533889 6.57693 0.822477 6.94055 1.1861C7.30417 1.54972 7.59276 1.9826 7.80632 2.48475C8.01987 2.98689 8.12665 3.51308 8.12665 4.06332C8.12665 4.90985 7.88808 5.6775 7.41095 6.36626L9.39067 8.34598C9.53304 8.48835 9.60422 8.6615 9.60422 8.86544Z" fill="#071789"/>
</g>
<defs>
<clipPath id="clip0_7220_6122">
<rect width="9.60422" height="9.60422" fill="white"/>
</clipPath>
</defs>
</svg>
