<svg width="21" height="20" viewBox="0 0 21 20" fill="none" xmlns="http://www.w3.org/2000/svg">
<path d="M9.34491 6.937V8.314H8.33691V9.997H9.34491V15H11.4169V9.997H12.8069C12.8069 9.997 12.9379 9.19 13.0009 8.307H11.4249V7.157C11.4249 6.984 11.6509 6.753 11.8749 6.753H13.0029V5H11.4679C9.29391 5 9.34491 6.685 9.34491 6.937Z" fill="#484848"/>
<path d="M4.64941 2C4.11898 2 3.61027 2.21071 3.2352 2.58579C2.86013 2.96086 2.64941 3.46957 2.64941 4V16C2.64941 16.5304 2.86013 17.0391 3.2352 17.4142C3.61027 17.7893 4.11898 18 4.64941 18H16.6494C17.1798 18 17.6886 17.7893 18.0636 17.4142C18.4387 17.0391 18.6494 16.5304 18.6494 16V4C18.6494 3.46957 18.4387 2.96086 18.0636 2.58579C17.6886 2.21071 17.1798 2 16.6494 2H4.64941ZM4.64941 0H16.6494C17.7103 0 18.7277 0.421427 19.4778 1.17157C20.228 1.92172 20.6494 2.93913 20.6494 4V16C20.6494 17.0609 20.228 18.0783 19.4778 18.8284C18.7277 19.5786 17.7103 20 16.6494 20H4.64941C3.58855 20 2.57113 19.5786 1.82099 18.8284C1.07084 18.0783 0.649414 17.0609 0.649414 16V4C0.649414 2.93913 1.07084 1.92172 1.82099 1.17157C2.57113 0.421427 3.58855 0 4.64941 0V0Z" fill="#484848"/>
</svg>
