<svg width="14" height="14" viewBox="0 0 14 14" fill="none" xmlns="http://www.w3.org/2000/svg">
<path fill-rule="evenodd" clip-rule="evenodd" d="M4.42969 7C4.42969 6.58579 4.76547 6.25 5.17969 6.25H8.82169C9.2359 6.25 9.57169 6.58579 9.57169 7V12.31H8.07169V7.75H5.92969V12.31H4.42969V7Z" fill="#B2B2B4"/>
<path fill-rule="evenodd" clip-rule="evenodd" d="M6.53965 0.337673C6.81049 0.127026 7.18973 0.127026 7.46057 0.337673L12.9236 4.58667C13.1063 4.72877 13.2131 4.94724 13.2131 5.17869V11.8557C13.2131 12.3766 13.0062 12.8761 12.6379 13.2444C12.2695 13.6128 11.77 13.8197 11.2491 13.8197L2.74787 13.8197C2.22783 13.8188 1.72935 13.6118 1.36178 13.2439C0.994203 12.876 0.787537 12.3773 0.78711 11.8573L0.787109 5.17869C0.787109 4.94724 0.893964 4.72877 1.07665 4.58667L6.53965 0.337673ZM2.28711 5.5455V11.8563C2.28727 11.9791 2.33609 12.0968 2.42288 12.1837C2.50961 12.2705 2.6272 12.3194 2.7499 12.3197C2.75005 12.3197 2.74975 12.3197 2.7499 12.3197H11.2491C11.3722 12.3197 11.4902 12.2708 11.5772 12.1838C11.6642 12.0968 11.7131 11.9787 11.7131 11.8557V5.5455L7.00011 1.87983L2.28711 5.5455Z" fill="#B2B2B4"/>
</svg>
