<svg width="21" height="20" viewBox="0 0 21 20" fill="none" xmlns="http://www.w3.org/2000/svg">
<path fill-rule="evenodd" clip-rule="evenodd" d="M10.648 5.4541C9.44246 5.4541 8.28631 5.933 7.43387 6.78543C6.58143 7.63787 6.10254 8.79403 6.10254 9.99956C6.10254 11.2051 6.58143 12.3612 7.43387 13.2137C8.28631 14.0661 9.44246 14.545 10.648 14.545C11.8535 14.545 13.0097 14.0661 13.8621 13.2137C14.7146 12.3612 15.1934 11.2051 15.1934 9.99956C15.1934 8.79403 14.7146 7.63787 13.8621 6.78543C13.0097 5.933 11.8535 5.4541 10.648 5.4541ZM7.92072 9.99956C7.92072 10.7229 8.20806 11.4166 8.71952 11.928C9.23098 12.4395 9.92468 12.7268 10.648 12.7268C11.3713 12.7268 12.065 12.4395 12.5765 11.928C13.0879 11.4166 13.3753 10.7229 13.3753 9.99956C13.3753 9.27624 13.0879 8.58255 12.5765 8.07108C12.065 7.55962 11.3713 7.27228 10.648 7.27228C9.92468 7.27228 9.23098 7.55962 8.71952 8.07108C8.20806 8.58255 7.92072 9.27624 7.92072 9.99956Z" fill="#071789"/>
<path d="M16.1054 3.63672C15.8643 3.63672 15.633 3.7325 15.4626 3.90299C15.2921 4.07347 15.1963 4.3047 15.1963 4.54581C15.1963 4.78692 15.2921 5.01815 15.4626 5.18863C15.633 5.35912 15.8643 5.4549 16.1054 5.4549C16.3465 5.4549 16.5777 5.35912 16.7482 5.18863C16.9187 5.01815 17.0145 4.78692 17.0145 4.54581C17.0145 4.3047 16.9187 4.07347 16.7482 3.90299C16.5777 3.7325 16.3465 3.63672 16.1054 3.63672Z" fill="#071789"/>
<path fill-rule="evenodd" clip-rule="evenodd" d="M4.28578 0C3.32135 0 2.39643 0.383116 1.71448 1.06507C1.03253 1.74702 0.649414 2.67194 0.649414 3.63636V16.3636C0.649414 17.3281 1.03253 18.253 1.71448 18.9349C2.39643 19.6169 3.32135 20 4.28578 20H17.0131C17.9775 20 18.9024 19.6169 19.5843 18.9349C20.2663 18.253 20.6494 17.3281 20.6494 16.3636V3.63636C20.6494 2.67194 20.2663 1.74702 19.5843 1.06507C18.9024 0.383116 17.9775 0 17.0131 0H4.28578ZM17.0131 1.81818H4.28578C3.80357 1.81818 3.3411 2.00974 3.00013 2.35071C2.65915 2.69169 2.4676 3.15415 2.4676 3.63636V16.3636C2.4676 16.8458 2.65915 17.3083 3.00013 17.6493C3.3411 17.9903 3.80357 18.1818 4.28578 18.1818H17.0131C17.4953 18.1818 17.9577 17.9903 18.2987 17.6493C18.6397 17.3083 18.8312 16.8458 18.8312 16.3636V3.63636C18.8312 3.15415 18.6397 2.69169 18.2987 2.35071C17.9577 2.00974 17.4953 1.81818 17.0131 1.81818Z" fill="#071789"/>
</svg>
