<svg width="500" height="500" viewBox="0 0 500 500" fill="none" xmlns="http://www.w3.org/2000/svg">
<path d="M500 382.398H0V382.648H500V382.398Z" fill="#EBEBEB"/>
<path d="M449.901 398.494H416.779V398.744H449.901V398.494Z" fill="#EBEBEB"/>
<path d="M331.22 401.208H322.527V401.458H331.22V401.208Z" fill="#EBEBEB"/>
<path d="M415.778 389.208H396.586V389.458H415.778V389.208Z" fill="#EBEBEB"/>
<path d="M95.652 390.888H52.459V391.138H95.652V390.888Z" fill="#EBEBEB"/>
<path d="M110.889 390.888H104.556V391.138H110.889V390.888Z" fill="#EBEBEB"/>
<path d="M225.147 395.111H131.471V395.361H225.147V395.111Z" fill="#EBEBEB"/>
<path d="M237.014 337.8H43.915C40.768 337.8 38.207 335.239 38.207 332.092V60.6601C38.207 57.5131 40.768 54.9521 43.915 54.9521H237.014C240.16 54.9521 242.721 57.5131 242.721 60.6601V332.092C242.721 335.239 240.16 337.8 237.014 337.8ZM43.915 55.2031C40.905 55.2031 38.457 57.6511 38.457 60.6611V332.093C38.457 335.103 40.905 337.551 43.915 337.551H237.014C240.023 337.551 242.471 335.103 242.471 332.093V60.6601C242.471 57.6511 240.023 55.2021 237.014 55.2021L43.915 55.2031Z" fill="#EBEBEB"/>
<path d="M453.31 337.8H260.212C257.065 337.8 254.505 335.239 254.505 332.092V60.6601C254.505 57.5131 257.066 54.9521 260.212 54.9521H453.31C456.458 54.9521 459.018 57.5131 459.018 60.6601V332.092C459.019 335.239 456.458 337.8 453.31 337.8ZM260.212 55.2031C257.203 55.2031 254.755 57.6511 254.755 60.6611V332.093C254.755 335.103 257.203 337.551 260.212 337.551H453.31C456.32 337.551 458.768 335.103 458.768 332.093V60.6601C458.768 57.6511 456.32 55.2021 453.31 55.2021L260.212 55.2031Z" fill="#EBEBEB"/>
<path d="M289.69 174.058L427.471 174.058V83.8306L289.69 83.8306V174.058Z" fill="#E6E6E6"/>
<path d="M285.487 174.058L425.507 174.058V83.8306L285.487 83.8306V174.058Z" fill="#F0F0F0"/>
<path d="M289.69 191.766L427.471 191.766V174.058L289.69 174.058V191.766Z" fill="#E6E6E6"/>
<path d="M278.484 191.766L418.504 191.766V174.058L278.484 174.058V191.766Z" fill="#F0F0F0"/>
<path d="M419.622 168.173V89.7168L291.373 89.7168V168.173L419.622 168.173Z" fill="#FAFAFA"/>
<path d="M390.702 168.174L374.322 89.7178H348.761L365.141 168.174H390.702Z" fill="white"/>
<path d="M416.897 162.315C417.129 162.315 417.318 162.127 417.318 161.895V93.547C417.318 93.315 417.13 93.127 416.897 93.127C416.665 93.127 416.476 93.315 416.476 93.547V161.895C416.476 162.127 416.665 162.315 416.897 162.315Z" fill="#F0F0F0"/>
<path d="M359.65 168.174L343.27 89.7178H333.304L349.685 168.174H359.65Z" fill="white"/>
<path d="M292.12 168.173V89.7168H291.373V168.173H292.12Z" fill="#E6E6E6"/>
<path opacity="0.6" d="M284.095 98.5909H421.876L422.417 92.0049H284.636L284.095 98.5909Z" fill="#EBEBEB"/>
<path opacity="0.6" d="M284.095 109.393H421.876L422.417 102.807H284.636L284.095 109.393Z" fill="#EBEBEB"/>
<path opacity="0.6" d="M284.095 120.194H421.876L422.417 113.608H284.636L284.095 120.194Z" fill="#EBEBEB"/>
<path opacity="0.6" d="M284.095 130.997H421.876L422.417 124.411H284.636L284.095 130.997Z" fill="#EBEBEB"/>
<path opacity="0.6" d="M284.095 141.799H421.876L422.417 135.213H284.636L284.095 141.799Z" fill="#EBEBEB"/>
<path opacity="0.6" d="M284.095 152.601H421.876L422.417 146.015H284.636L284.095 152.601Z" fill="#EBEBEB"/>
<path d="M407.688 316.781H378.799V322.477H407.688V316.781Z" fill="#E6E6E6"/>
<path d="M324.308 382.399H329.641V251.334H324.308V382.399Z" fill="#E6E6E6"/>
<path d="M305.835 322.478H378.798V316.782H305.835V322.478Z" fill="#F5F5F5"/>
<path d="M407.688 347.948H378.799V353.644H407.688V347.948Z" fill="#E6E6E6"/>
<path d="M305.835 353.644H378.798V347.948H305.835V353.644Z" fill="#F5F5F5"/>
<path d="M407.688 254.448H378.799V260.144H407.688V254.448Z" fill="#E6E6E6"/>
<path d="M305.835 260.144H378.798V254.448H305.835V260.144Z" fill="#F5F5F5"/>
<path d="M407.688 285.615H378.799V291.311H407.688V285.615Z" fill="#E6E6E6"/>
<path d="M305.835 291.311H378.798V285.615H305.835V291.311Z" fill="#F5F5F5"/>
<path d="M397.271 382.399H402.604V251.334H397.271V382.399Z" fill="#E6E6E6"/>
<path d="M373.466 382.399H378.799V251.334H373.466V382.399Z" fill="#F5F5F5"/>
<path d="M305.835 382.399H311.168V251.334H305.835V382.399Z" fill="#F5F5F5"/>
<path d="M65.3732 382.399H119.951L119.951 276.507H65.3732L65.3732 382.399Z" fill="#E6E6E6"/>
<path d="M79.9478 382.399H65.3738V367.781H95.2278L79.9478 382.399Z" fill="#FAFAFA"/>
<path d="M214.183 382.399H268.761V276.507H214.183V382.399Z" fill="#E6E6E6"/>
<path d="M65.3734 377.368H226.902V276.507H65.3734V377.368Z" fill="#FAFAFA"/>
<path d="M212.329 382.399H226.903V367.781H197.048L212.329 382.399Z" fill="#FAFAFA"/>
<path d="M76.6792 339.332H215.596V314.091H76.6792V339.332Z" fill="#F0F0F0"/>
<path d="M76.6792 369.967H215.596V344.726H76.6792V369.967Z" fill="#F0F0F0"/>
<path d="M103.084 316.79H189.192C191.719 316.79 193.768 314.741 193.768 312.213V311.905H98.5078V312.213C98.5078 314.741 100.557 316.79 103.084 316.79Z" fill="#FAFAFA"/>
<path d="M76.6792 308.696H215.596V283.455H76.6792V308.696Z" fill="#F0F0F0"/>
<path d="M103.084 286.155H189.192C191.719 286.155 193.768 284.106 193.768 281.578V281.27H98.5078V281.578C98.5078 284.106 100.557 286.155 103.084 286.155Z" fill="#FAFAFA"/>
<path d="M103.084 347.425H189.192C191.719 347.425 193.768 345.376 193.768 342.849V342.541H98.5078V342.849C98.5078 345.376 100.557 347.425 103.084 347.425Z" fill="#FAFAFA"/>
<path d="M74.0684 174.058L211.849 174.058V83.8306L74.0684 83.8306V174.058Z" fill="#E6E6E6"/>
<path d="M69.865 174.058L209.885 174.058V83.8306L69.865 83.8306V174.058Z" fill="#F0F0F0"/>
<path d="M74.0684 191.766L211.849 191.766V174.058L74.0684 174.058V191.766Z" fill="#E6E6E6"/>
<path d="M62.8606 191.766L202.881 191.766V174.058L62.8606 174.058V191.766Z" fill="#F0F0F0"/>
<path d="M204 168.174L204 89.7178L75.7505 89.7178L75.7505 168.174L204 168.174Z" fill="#FAFAFA"/>
<path d="M175.08 168.174L158.699 89.7178H133.138L149.519 168.174H175.08Z" fill="white"/>
<path d="M201.274 162.315C201.506 162.315 201.694 162.127 201.694 161.895V93.547C201.694 93.315 201.506 93.127 201.274 93.127C201.042 93.127 200.853 93.315 200.853 93.547V161.895C200.854 162.127 201.042 162.315 201.274 162.315Z" fill="#F0F0F0"/>
<path d="M144.028 168.174L127.647 89.7178H117.682L134.063 168.174H144.028Z" fill="white"/>
<path d="M76.4976 168.174L76.4976 89.7178H75.7506L75.7506 168.174H76.4976Z" fill="#E6E6E6"/>
<path opacity="0.6" d="M68.4722 98.5909H206.253L206.795 92.0049H69.0142L68.4722 98.5909Z" fill="#EBEBEB"/>
<path opacity="0.6" d="M68.4722 102.307H206.253L206.795 95.7197H69.0142L68.4722 102.307Z" fill="#EBEBEB"/>
<path opacity="0.6" d="M68.4722 106.022H206.253L206.795 99.4355H69.0142L68.4722 106.022Z" fill="#EBEBEB"/>
<path opacity="0.6" d="M68.4722 109.737H206.253L206.795 103.15H69.0142L68.4722 109.737Z" fill="#EBEBEB"/>
<path opacity="0.6" d="M68.4722 113.453H206.253L206.795 106.867H69.0142L68.4722 113.453Z" fill="#EBEBEB"/>
<path opacity="0.6" d="M68.4722 117.168H206.253L206.795 110.582H69.0142L68.4722 117.168Z" fill="#EBEBEB"/>
<path d="M96.0139 273.271H100.777V220.179H96.0139V273.271Z" fill="#F5F5F5"/>
<path d="M96.6269 273.234H97.9719V220.142H96.6269V273.234Z" fill="#FAFAFA"/>
<path d="M98.5355 273.234H99.0625V220.142H98.5355V273.234Z" fill="#FAFAFA"/>
<path d="M80.7629 276.507H116.027C116.027 274.053 114.038 272.064 111.584 272.064H85.2059C82.7519 272.064 80.7629 274.053 80.7629 276.507Z" fill="#F0F0F0"/>
<path d="M89.8351 253.138C90.5891 253.138 91.2051 252.521 91.2051 251.768V216.958C91.2051 216.205 90.5881 215.588 89.8351 215.588C89.0811 215.588 88.4651 216.205 88.4651 216.958V251.768C88.4651 252.522 89.0811 253.138 89.8351 253.138Z" fill="#F0F0F0"/>
<path d="M77.074 232.799H119.716L114.811 203H81.979L77.074 232.799Z" fill="#E0E0E0"/>
<path d="M250 427.561C357.082 427.561 443.889 422.492 443.889 416.238C443.889 409.985 357.082 404.915 250 404.915C142.918 404.915 56.1111 409.985 56.1111 416.238C56.1111 422.492 142.918 427.561 250 427.561Z" fill="#F5F5F5"/>
<path d="M104.108 202.361L103.11 202.433L104.438 220.874L105.435 220.802L104.108 202.361Z" fill="#071789"/>
<path d="M106.139 230.316L105.142 230.388L105.642 237.325L106.639 237.253L106.139 230.316Z" fill="#071789"/>
<path d="M337.711 315.161H123.553C118.709 315.161 114.461 311.198 114.112 306.354L103.589 160.224C103.24 155.38 106.918 151.417 111.762 151.417H325.92C330.764 151.417 335.012 155.38 335.361 160.224L345.884 306.354C346.232 311.198 342.555 315.161 337.711 315.161Z" fill="#071789"/>
<path d="M338.532 315.161H124.374C119.53 315.161 115.282 311.198 114.933 306.354L104.41 160.224C104.061 155.38 107.739 151.417 112.583 151.417H326.741C331.585 151.417 335.833 155.38 336.182 160.224L346.705 306.354C347.053 311.198 343.376 315.161 338.532 315.161Z" fill="#071789"/>
<path opacity="0.5" d="M338.532 315.161H124.374C119.53 315.161 115.282 311.198 114.933 306.354L104.41 160.224C104.061 155.38 107.739 151.417 112.583 151.417H326.741C331.585 151.417 335.833 155.38 336.182 160.224L346.705 306.354C347.053 311.198 343.376 315.161 338.532 315.161Z" fill="white"/>
<path d="M327.058 155.821H112.9C112.658 155.821 112.419 155.831 112.183 155.85C106.709 156.301 107.827 164.628 113.352 164.628H327.875C333.4 164.628 333.319 156.301 327.78 155.85C327.541 155.831 327.3 155.821 327.058 155.821Z" fill="#071789"/>
<path d="M118.478 160.225C118.558 161.34 117.72 162.244 116.604 162.244C115.489 162.244 114.52 161.34 114.44 160.225C114.36 159.11 115.198 158.206 116.314 158.206C117.43 158.206 118.398 159.109 118.478 160.225Z" fill="#FAFAFA"/>
<path d="M125.346 160.225C125.426 161.34 124.588 162.244 123.472 162.244C122.357 162.244 121.388 161.34 121.308 160.225C121.228 159.11 122.066 158.206 123.182 158.206C124.297 158.206 125.266 159.109 125.346 160.225Z" fill="#FAFAFA"/>
<path d="M132.214 160.225C132.294 161.34 131.455 162.244 130.34 162.244C129.225 162.244 128.256 161.34 128.175 160.225C128.095 159.11 128.934 158.206 130.049 158.206C131.164 158.206 132.133 159.109 132.214 160.225Z" fill="#FAFAFA"/>
<path d="M332.854 300.577H127.951C126.188 300.577 124.655 299.147 124.528 297.384L115.874 177.211C115.747 175.448 117.074 174.018 118.837 174.018H323.74C325.503 174.018 327.036 175.447 327.163 177.211L335.817 297.384C335.944 299.147 334.617 300.577 332.854 300.577Z" fill="white"/>
<path d="M246.53 254.799L243.195 208.48L233.087 202.396H205.283L209.057 254.799H246.53Z" fill="white"/>
<path d="M246.53 255.283H209.057C208.803 255.283 208.592 255.087 208.574 254.833L204.8 202.43C204.79 202.296 204.837 202.163 204.929 202.065C205.021 201.966 205.149 201.911 205.284 201.911H233.088C233.176 201.911 233.263 201.935 233.338 201.981L243.445 208.064C243.58 208.145 243.667 208.287 243.678 208.444L247.013 254.763C247.023 254.897 246.976 255.03 246.884 255.128C246.793 255.227 246.664 255.283 246.53 255.283ZM209.508 254.314H246.009L242.729 208.765L232.953 202.88H205.804L209.508 254.314Z" fill="#071789"/>
<path d="M243.195 208.48L233.087 202.396L236.798 210.456L243.195 208.48Z" fill="#EBEBEB"/>
<path d="M236.798 210.939C236.613 210.939 236.439 210.832 236.358 210.657L232.647 202.598C232.558 202.405 232.605 202.176 232.764 202.034C232.922 201.892 233.155 201.871 233.337 201.98L243.444 208.064C243.608 208.162 243.698 208.348 243.675 208.538C243.652 208.728 243.52 208.886 243.337 208.942L236.941 210.918C236.894 210.932 236.846 210.939 236.798 210.939ZM234.186 203.622L237.061 209.866L242.017 208.335L234.186 203.622Z" fill="#071789"/>
<path d="M220.969 226.006C221.053 227.175 220.174 228.123 219.004 228.123C217.834 228.123 216.819 227.175 216.735 226.006C216.651 224.837 217.53 223.889 218.699 223.889C219.868 223.889 220.885 224.837 220.969 226.006Z" fill="#071789"/>
<path d="M234.705 226.006C234.789 227.175 233.91 228.123 232.74 228.123C231.571 228.123 230.555 227.175 230.47 226.006C230.386 224.837 231.265 223.889 232.435 223.889C233.605 223.89 234.621 224.837 234.705 226.006Z" fill="#071789"/>
<path d="M238.58 239.736C238.328 239.736 238.116 239.541 238.097 239.286C237.852 235.882 232.514 233.113 226.197 233.113C222.012 233.113 218.255 234.357 216.391 236.36C215.562 237.251 215.179 238.211 215.251 239.216C215.27 239.483 215.069 239.715 214.802 239.734C214.534 239.751 214.303 239.552 214.284 239.285C214.193 238.019 214.676 236.779 215.681 235.699C217.722 233.505 221.751 232.143 226.197 232.143C233.126 232.143 238.778 235.25 239.064 239.215C239.083 239.482 238.882 239.714 238.615 239.733C238.603 239.736 238.591 239.736 238.58 239.736Z" fill="#071789"/>
<path d="M213.167 221.717C213.049 221.717 212.931 221.674 212.837 221.588C212.641 221.406 212.629 221.099 212.811 220.903L214.935 218.615C215.117 218.418 215.424 218.408 215.62 218.589C215.816 218.771 215.827 219.078 215.646 219.274L213.523 221.562C213.427 221.665 213.297 221.717 213.167 221.717Z" fill="#071789"/>
<path d="M237.584 221.717C237.466 221.717 237.347 221.674 237.253 221.587L234.8 219.299C234.604 219.117 234.594 218.81 234.776 218.614C234.958 218.418 235.265 218.408 235.461 218.59L237.914 220.878C238.11 221.06 238.12 221.367 237.938 221.563C237.843 221.665 237.714 221.717 237.584 221.717Z" fill="#071789"/>
<path d="M202.257 265.153H204.517L207.778 269.487L207.466 265.153H209.747L210.311 272.986H208.029L204.786 268.685L205.096 272.986H202.82L202.257 265.153Z" fill="#071789"/>
<path d="M211.334 269.075C211.242 267.796 211.526 266.801 212.188 266.088C212.849 265.376 213.816 265.019 215.087 265.019C216.391 265.019 217.42 265.369 218.176 266.069C218.932 266.769 219.355 267.749 219.446 269.01C219.512 269.925 219.412 270.676 219.146 271.262C218.88 271.848 218.468 272.304 217.909 272.63C217.35 272.956 216.636 273.119 215.767 273.119C214.884 273.119 214.142 272.978 213.543 272.697C212.944 272.416 212.443 271.97 212.039 271.361C211.635 270.753 211.4 269.991 211.334 269.075ZM213.755 269.086C213.812 269.877 214 270.445 214.318 270.79C214.637 271.136 215.049 271.308 215.555 271.308C216.075 271.308 216.465 271.139 216.726 270.8C216.987 270.462 217.085 269.854 217.022 268.978C216.969 268.241 216.781 267.702 216.459 267.362C216.137 267.022 215.721 266.852 215.212 266.852C214.724 266.852 214.345 267.025 214.074 267.37C213.804 267.717 213.698 268.288 213.755 269.086Z" fill="#071789"/>
<path d="M224.152 265.153H227.748C228.457 265.153 229.036 265.249 229.487 265.441C229.937 265.633 230.318 265.909 230.629 266.269C230.94 266.629 231.177 267.047 231.339 267.525C231.502 268.002 231.602 268.508 231.641 269.042C231.701 269.879 231.653 270.528 231.495 270.99C231.338 271.451 231.101 271.838 230.785 272.149C230.469 272.461 230.121 272.668 229.74 272.771C229.22 272.914 228.744 272.985 228.313 272.985H224.717L224.152 265.153ZM226.7 266.927L227.008 271.207H227.601C228.107 271.207 228.462 271.151 228.668 271.039C228.874 270.927 229.027 270.731 229.128 270.451C229.229 270.171 229.257 269.718 229.212 269.091C229.152 268.261 228.976 267.693 228.683 267.387C228.39 267.081 227.93 266.928 227.303 266.928H226.7V266.927Z" fill="#071789"/>
<path d="M237.448 271.692H234.7L234.411 272.985H231.94L234.32 265.152H236.96L240.467 272.985H237.932L237.448 271.692ZM236.824 269.999L235.756 267.183L235.103 269.999H236.824Z" fill="#071789"/>
<path d="M239.369 265.153H246.726L246.865 267.087H244.397L244.822 272.986H242.402L241.977 267.087H239.509L239.369 265.153Z" fill="#071789"/>
<path d="M252.365 271.692H249.617L249.328 272.985H246.857L249.237 265.152H251.877L255.384 272.985H252.849L252.365 271.692ZM251.741 269.999L250.674 267.183L250.021 269.999H251.741Z" fill="#071789"/>
</svg>
