<svg width="222" height="23" viewBox="0 0 222 23" fill="none" xmlns="http://www.w3.org/2000/svg">
<path d="M9.40431 2.5C9.00353 2.5 8.60275 2.70742 8.39533 3.12578L6.09963 7.78047L0.963298 8.52578C0.0422042 8.65937 -0.326936 9.79492 0.341032 10.4453L4.05705 14.0664L3.17814 19.1816C3.01994 20.0992 3.98674 20.7988 4.80939 20.3664L9.40431 17.9547V2.5Z" fill="#FB4C06"/>
<path d="M9.34569 2.5C9.74647 2.5 10.1472 2.70742 10.3547 3.12578L12.6504 7.78047L17.7867 8.52578C18.7078 8.65937 19.0769 9.79492 18.409 10.4453L14.693 14.0664L15.5719 19.1816C15.7301 20.0992 14.7633 20.7988 13.9406 20.3664L9.34569 17.9547V2.5Z" fill="#FB4C06"/>
<path d="M38.1856 2.5C37.7848 2.5 37.384 2.70742 37.1766 3.12578L34.8809 7.78047L29.7445 8.52578C28.8235 8.65937 28.4543 9.79492 29.1223 10.4453L32.8383 14.0664L31.9594 19.1816C31.8012 20.0992 32.768 20.7988 33.5906 20.3664L38.1856 17.9547V2.5Z" fill="#FB4C06"/>
<path d="M38.1269 2.5C38.5277 2.5 38.9285 2.70742 39.1359 3.12578L41.4316 7.78047L46.568 8.52578C47.489 8.65937 47.8582 9.79492 47.1902 10.4453L43.4742 14.0664L44.3531 19.1816C44.5113 20.0992 43.5445 20.7988 42.7219 20.3664L38.1269 17.9547V2.5Z" fill="#FB4C06"/>
<path d="M66.9629 2.5C66.5621 2.5 66.1613 2.70742 65.9539 3.12578L63.6582 7.78047L58.5219 8.52578C57.6008 8.65937 57.2317 9.79492 57.8996 10.4453L61.6156 14.0664L60.7367 19.1816C60.5785 20.0992 61.5453 20.7988 62.368 20.3664L66.9629 17.9547V2.5Z" fill="#FB4C06"/>
<path d="M66.9043 2.5C67.3051 2.5 67.7058 2.70742 67.9133 3.12578L70.209 7.78047L75.3453 8.52578C76.2664 8.65937 76.6355 9.79492 75.9676 10.4453L72.2515 14.0664L73.1305 19.1816C73.2887 20.0992 72.3219 20.7988 71.4992 20.3664L66.9043 17.9547V2.5Z" fill="#FB4C06"/>
<path d="M95.7442 2.5C95.3434 2.5 94.9426 2.70742 94.7352 3.12578L92.4395 7.78047L87.3031 8.52578C86.382 8.65937 86.0129 9.79492 86.6809 10.4453L90.3969 14.0664L89.518 19.1816C89.3598 20.0992 90.3266 20.7988 91.1492 20.3664L95.7442 17.9547V2.5Z" fill="#FB4C06"/>
<path d="M95.6855 2.5C96.0863 2.5 96.4871 2.70742 96.6945 3.12578L98.9902 7.78047L104.127 8.52578C105.048 8.65937 105.417 9.79492 104.749 10.4453L101.033 14.0664L101.912 19.1816C102.07 20.0992 101.103 20.7988 100.28 20.3664L95.6855 17.9547V2.5Z" fill="#FB4C06"/>
<path d="M124.525 2.5C124.125 2.5 123.724 2.70742 123.516 3.12578L121.221 7.78047L116.084 8.52578C115.163 8.65937 114.794 9.79492 115.462 10.4453L119.178 14.0664L118.299 19.1816C118.141 20.0992 119.108 20.7988 119.93 20.3664L124.525 17.9547V2.5Z" fill="#FB4C06"/>
<path d="M124.467 2.5C124.868 2.5 125.268 2.70742 125.476 3.12578L127.771 7.78047L132.908 8.52578C133.829 8.65937 134.198 9.79492 133.53 10.4453L129.814 14.0664L130.693 19.1816C130.851 20.0992 129.884 20.7988 129.062 20.3664L124.467 17.9547V2.5Z" fill="#FB4C06"/>
<path d="M154.636 14.568V13.192L160.012 5.48H162.22V12.984H163.708V14.568H162.22V17H160.428V14.568H154.636ZM160.508 7.336L156.732 12.984H160.508V7.336ZM166.196 17.112C165.865 17.112 165.588 17 165.364 16.776C165.14 16.552 165.028 16.2747 165.028 15.944C165.028 15.6133 165.14 15.336 165.364 15.112C165.588 14.888 165.865 14.776 166.196 14.776C166.516 14.776 166.788 14.888 167.012 15.112C167.236 15.336 167.348 15.6133 167.348 15.944C167.348 16.2747 167.236 16.552 167.012 16.776C166.788 17 166.516 17.112 166.196 17.112ZM171.047 10.904C169.938 10.3493 169.383 9.47467 169.383 8.28C169.383 7.704 169.527 7.176 169.815 6.696C170.103 6.216 170.535 5.83733 171.111 5.56C171.687 5.272 172.391 5.128 173.223 5.128C174.044 5.128 174.743 5.272 175.319 5.56C175.906 5.83733 176.343 6.216 176.631 6.696C176.919 7.176 177.063 7.704 177.063 8.28C177.063 8.87733 176.908 9.40533 176.599 9.864C176.3 10.312 175.9 10.6587 175.399 10.904C176.007 11.128 176.487 11.496 176.839 12.008C177.191 12.5093 177.367 13.1013 177.367 13.784C177.367 14.4773 177.191 15.0907 176.839 15.624C176.487 16.1573 175.996 16.568 175.367 16.856C174.738 17.144 174.023 17.288 173.223 17.288C172.423 17.288 171.708 17.144 171.079 16.856C170.46 16.568 169.975 16.1573 169.623 15.624C169.271 15.0907 169.095 14.4773 169.095 13.784C169.095 13.0907 169.271 12.4933 169.623 11.992C169.975 11.4907 170.45 11.128 171.047 10.904ZM175.319 8.504C175.319 7.90667 175.132 7.448 174.759 7.128C174.386 6.808 173.874 6.648 173.223 6.648C172.583 6.648 172.076 6.808 171.703 7.128C171.33 7.448 171.143 7.912 171.143 8.52C171.143 9.05333 171.335 9.49067 171.719 9.832C172.114 10.1627 172.615 10.328 173.223 10.328C173.831 10.328 174.332 10.1573 174.727 9.816C175.122 9.47467 175.319 9.03733 175.319 8.504ZM173.223 11.704C172.519 11.704 171.943 11.88 171.495 12.232C171.058 12.5733 170.839 13.0693 170.839 13.72C170.839 14.328 171.052 14.824 171.479 15.208C171.906 15.5813 172.487 15.768 173.223 15.768C173.948 15.768 174.519 15.576 174.935 15.192C175.362 14.808 175.575 14.3173 175.575 13.72C175.575 13.08 175.356 12.584 174.919 12.232C174.492 11.88 173.927 11.704 173.223 11.704ZM185.442 1.896L181.09 19.8H179.298L183.634 1.896H185.442ZM195.021 6.904H189.661V10.088C189.885 9.78933 190.216 9.53867 190.653 9.336C191.101 9.13333 191.576 9.032 192.077 9.032C192.973 9.032 193.698 9.224 194.253 9.608C194.818 9.992 195.218 10.4773 195.453 11.064C195.698 11.6507 195.821 12.2693 195.821 12.92C195.821 13.7093 195.666 14.4133 195.357 15.032C195.058 15.64 194.605 16.12 193.997 16.472C193.4 16.824 192.664 17 191.789 17C190.626 17 189.693 16.712 188.989 16.136C188.285 15.56 187.864 14.7973 187.725 13.848H189.501C189.618 14.3493 189.88 14.7493 190.285 15.048C190.69 15.336 191.197 15.48 191.805 15.48C192.562 15.48 193.128 15.2507 193.501 14.792C193.885 14.3333 194.077 13.7253 194.077 12.968C194.077 12.2 193.885 11.6133 193.501 11.208C193.117 10.792 192.552 10.584 191.805 10.584C191.282 10.584 190.84 10.7173 190.477 10.984C190.125 11.24 189.869 11.592 189.709 12.04H187.981V5.304H195.021V6.904Z" fill="#484848"/>
</svg>
