<svg width="230" height="223" viewBox="0 0 230 223" fill="none" xmlns="http://www.w3.org/2000/svg">
<path d="M115.001 222.483C178.352 222.483 229.709 192.832 229.709 156.256C229.709 119.68 178.352 90.0289 115.001 90.0289C51.6495 90.0289 0.292969 119.68 0.292969 156.256C0.292969 192.832 51.6495 222.483 115.001 222.483Z" fill="#F0F0F0"/>
<path d="M180.876 179.235C173.354 174.893 173.354 167.853 180.876 163.51C188.398 159.167 200.593 159.167 208.115 163.51C215.637 167.853 215.637 174.893 208.115 179.235C200.593 183.578 188.398 183.578 180.876 179.235Z" fill="#E0E0E0"/>
<path d="M27.8876 179.839L8.1018 168.418C6.9869 167.775 6.9869 166.728 8.1018 166.085L123.19 99.6395C123.815 99.3225 124.506 99.1573 125.208 99.1573C125.909 99.1573 126.6 99.3225 127.226 99.6395L147.016 111.061C148.131 111.704 148.131 112.75 147.016 113.393L31.9285 179.839C31.3022 180.156 30.61 180.321 29.908 180.321C29.2061 180.321 28.5139 180.156 27.8876 179.839V179.839Z" fill="#E0E0E0"/>
<path d="M99.0096 159.479L116.02 149.644C117.773 148.632 118.649 147.308 118.649 145.978C118.649 144.649 118.649 143.612 118.649 143.612L101.006 133.661C100.513 133.342 100.102 132.911 99.808 132.404C99.5135 131.896 99.3434 131.326 99.3115 130.74V109.761L69.6133 126.928V147.897C69.6475 148.482 69.8186 149.051 70.1129 149.559C70.4071 150.066 70.8163 150.497 71.3075 150.818L86.3222 159.464C89.8178 161.504 95.5042 161.504 99.0096 159.479Z" fill="#071789"/>
<g opacity="0.6">
<path d="M99.0096 159.479L116.02 149.644C117.773 148.632 118.649 147.308 118.649 145.978C118.649 144.649 118.649 143.612 118.649 143.612L101.006 133.661C100.513 133.342 100.102 132.911 99.808 132.404C99.5135 131.896 99.3434 131.326 99.3115 130.74V109.761L69.6133 126.928V147.897C69.6475 148.482 69.8186 149.051 70.1129 149.559C70.4071 150.066 70.8163 150.497 71.3075 150.818L86.3222 159.464C89.8178 161.504 95.5042 161.504 99.0096 159.479Z" fill="black"/>
</g>
<path opacity="0.3" d="M76.734 151.611V153.968L71.291 150.827C70.7998 150.507 70.391 150.076 70.0975 149.569C69.804 149.061 69.6341 148.492 69.6016 147.906V126.928L75.2588 123.661C75.3757 125.097 75.5022 126.582 75.624 128.043L71.6464 130.331V146.713C71.6779 147.3 71.8479 147.87 72.1424 148.378C72.4369 148.885 72.8475 149.316 73.3406 149.635L76.734 151.611Z" fill="black"/>
<path d="M71.6484 146.718C71.6819 147.304 71.8527 147.874 72.147 148.381C72.4413 148.889 72.8509 149.32 73.3427 149.639L86.3028 157.108C89.8081 159.128 95.4946 159.133 99.0048 157.108L116.045 147.273C119.555 145.248 119.555 141.967 116.045 139.941L103.075 132.473C102.584 132.152 102.176 131.721 101.882 131.214C101.589 130.706 101.419 130.137 101.386 129.552V113.164L71.6874 130.331L71.6484 146.718Z" fill="#071789"/>
<path opacity="0.3" d="M71.6484 146.718C71.6819 147.304 71.8527 147.874 72.147 148.381C72.4413 148.889 72.8509 149.32 73.3427 149.639L86.3028 157.108C89.8081 159.128 95.4946 159.133 99.0048 157.108L116.045 147.273C119.555 145.248 119.555 141.967 116.045 139.941L103.075 132.473C102.584 132.152 102.176 131.721 101.882 131.214C101.589 130.706 101.419 130.137 101.386 129.552V113.164L71.6874 130.331L71.6484 146.718Z" fill="black"/>
<path opacity="0.5" d="M106.507 134.474L103.056 132.483C102.565 132.162 102.156 131.731 101.863 131.223C101.57 130.716 101.399 130.147 101.366 129.562V113.164L71.668 130.331V146.718C71.7014 147.304 71.8722 147.874 72.1665 148.381C72.4609 148.889 72.8705 149.32 73.3622 149.639L76.7702 151.587L106.507 134.474Z" fill="black"/>
<path d="M118.652 143.617V145.983C118.652 147.312 117.771 148.632 116.023 149.649L98.9832 159.479C97.1184 160.474 95.0357 160.991 92.9219 160.983V158.627C95.0357 158.635 97.1184 158.118 98.9832 157.122L116.023 147.283C117.771 146.275 118.652 144.946 118.652 143.617Z" fill="#071789"/>
<path opacity="0.5" d="M118.652 143.617V145.983C118.652 147.312 117.771 148.632 116.023 149.649L98.9832 159.479C97.1184 160.474 95.0357 160.991 92.9219 160.983V158.627C95.0357 158.635 97.1184 158.118 98.9832 157.122L116.023 147.283C117.771 146.275 118.652 144.946 118.652 143.617Z" fill="black"/>
<path d="M23.9357 167.084C24.5777 167.394 25.2836 167.549 25.9965 167.536C26.7094 167.523 27.4093 167.343 28.0399 167.01L142.938 100.676C143.554 100.275 144.067 99.7333 144.435 99.0964C144.802 98.4595 145.015 97.7449 145.056 97.0105V4.06006C145.034 3.34554 144.843 2.64633 144.5 2.0194C144.156 1.39247 143.669 0.855578 143.079 0.452465C142.438 0.142024 141.732 -0.0127181 141.02 0.000817364C140.308 0.0143528 139.609 0.195784 138.98 0.530361L24.0818 66.8839C23.4678 67.2882 22.9582 67.832 22.5943 68.4708C22.2305 69.1096 22.0229 69.8253 21.9883 70.5596V163.495C22.01 164.204 22.1975 164.898 22.5357 165.521C22.8738 166.144 23.3533 166.679 23.9357 167.084Z" fill="#071789"/>
<path d="M28.0553 167.006L142.953 100.672C143.57 100.271 144.083 99.7295 144.451 99.0924C144.82 98.4553 145.032 97.7403 145.071 97.0055V4.06001C145.071 2.71142 144.122 2.16127 142.953 2.838L28.0553 69.172C27.439 69.5736 26.926 70.1148 26.558 70.7518C26.19 71.3887 25.9775 72.1035 25.9375 72.838V165.784C25.9375 167.132 26.8869 167.682 28.0553 167.006Z" fill="#071789"/>
<path opacity="0.5" d="M28.0553 167.006L142.953 100.672C143.57 100.271 144.083 99.7295 144.451 99.0924C144.82 98.4553 145.032 97.7403 145.071 97.0055V4.06001C145.071 2.71142 144.122 2.16127 142.953 2.838L28.0553 69.172C27.439 69.5736 26.926 70.1148 26.558 70.7518C26.19 71.3887 25.9775 72.1035 25.9375 72.838V165.784C25.9375 167.132 26.8869 167.682 28.0553 167.006Z" fill="black"/>
<path d="M27.7429 169.421C27.1404 169.683 26.488 169.813 25.8308 169.799C25.1735 169.786 24.5269 169.63 23.9357 169.343C23.352 168.937 22.8718 168.401 22.5335 167.776C22.1952 167.151 22.0085 166.455 21.9883 165.745V157.283L25.9562 159.581V168.043C25.9318 169.274 26.7156 169.834 27.7429 169.421Z" fill="#071789"/>
<path opacity="0.5" d="M27.7429 169.421C27.1404 169.683 26.488 169.813 25.8308 169.799C25.1735 169.786 24.5269 169.63 23.9357 169.343C23.352 168.937 22.8718 168.401 22.5335 167.776C22.1952 167.151 22.0085 166.455 21.9883 165.745V157.283L25.9562 159.581V168.043C25.9318 169.274 26.7156 169.834 27.7429 169.421Z" fill="black"/>
<path d="M25.9336 159.581V168.043C25.9336 169.391 26.9073 169.936 28.0514 169.265L142.949 102.931C143.563 102.531 144.074 101.992 144.442 101.359C144.81 100.726 145.024 100.015 145.067 99.2841V90.7836L25.9336 159.581Z" fill="#071789"/>
<path opacity="0.3" d="M25.9375 159.562V168.043C25.9375 169.391 26.9112 169.936 28.0553 169.265L142.953 102.931C143.566 102.53 144.076 101.992 144.443 101.358C144.81 100.725 145.023 100.015 145.066 99.2841V90.7836L25.9375 159.562Z" fill="black"/>
<path d="M29.9062 148.943V74.1575C29.9289 73.7169 30.0554 73.2879 30.2754 72.9054C30.4953 72.523 30.8026 72.198 31.1721 71.9569L139.809 9.21585C140.51 8.81176 141.08 9.13795 141.08 9.94613V84.7709C141.056 85.2119 140.929 85.641 140.708 86.0234C140.487 86.4058 140.179 86.7306 139.809 86.9715L31.1769 149.698C30.4759 150.102 29.9062 149.771 29.9062 148.943Z" fill="#071789"/>
<path d="M29.9062 148.943V74.1575C29.9289 73.7169 30.0554 73.2879 30.2754 72.9054C30.4953 72.523 30.8026 72.198 31.1721 71.9569L139.809 9.21585C140.51 8.81176 141.08 9.13795 141.08 9.94613V84.7709C141.056 85.2119 140.929 85.641 140.708 86.0234C140.487 86.4058 140.179 86.7306 139.809 86.9715L31.1769 149.698C30.4759 150.102 29.9062 149.771 29.9062 148.943Z" fill="#263238"/>
<path d="M85.4981 127.877C84.9198 128.253 84.4385 128.761 84.0933 129.358C83.7481 129.955 83.5489 130.625 83.5117 131.314C83.5117 132.58 84.4027 133.096 85.4981 132.463C86.077 132.087 86.5587 131.579 86.9039 130.98C87.2492 130.382 87.4481 129.711 87.4845 129.021C87.4845 127.755 86.5935 127.244 85.4981 127.877Z" fill="#071789"/>
<path opacity="0.7" d="M26.5599 70.7447C26.1825 71.3789 25.9669 72.0961 25.9318 72.8333V159.581L21.9883 157.283V70.5597C22.0138 69.8201 22.2284 69.0993 22.6115 68.4662L26.5599 70.7447Z" fill="black"/>
<path opacity="0.3" d="M145.046 3.70951C144.895 2.61896 144.013 2.24895 142.947 2.83804L28.0494 69.1721C27.4265 69.5617 26.9123 70.1027 26.5548 70.7446L22.582 68.4515C22.9419 67.8098 23.4576 67.2689 24.0815 66.879L138.979 0.549824C139.609 0.2152 140.309 0.0337606 141.022 0.0202264C141.735 0.0066921 142.441 0.161444 143.084 0.471927C143.623 0.839677 144.078 1.31903 144.416 1.87759C144.755 2.43614 144.969 3.06086 145.046 3.70951Z" fill="black"/>
<path d="M151.242 15.1506C151.071 15.065 150.881 15.0274 150.69 15.042C150.5 15.0566 150.317 15.1227 150.161 15.2334L41.7484 77.8624C41.3206 78.1454 40.9655 78.5252 40.7117 78.9709C40.458 79.4166 40.3128 79.9159 40.2878 80.4282V154.756C40.2726 155.007 40.3225 155.258 40.4325 155.484C40.5425 155.71 40.709 155.904 40.9159 156.047C41.1544 156.178 42.43 156.918 42.8097 157.122C42.9441 157.191 43.0942 157.222 43.2447 157.214C43.3953 157.205 43.5409 157.157 43.6666 157.074L152.055 94.4447C152.483 94.1617 152.838 93.782 153.092 93.3363C153.346 92.8905 153.491 92.3913 153.516 91.879V17.1662C153.538 16.9774 153.506 16.7863 153.425 16.6143C153.345 16.4423 153.217 16.2962 153.058 16.1925C152.815 16.0318 151.515 15.3113 151.242 15.1506Z" fill="#071789"/>
<path d="M43.6442 78.9141L152.062 16.3094C152.88 15.8225 153.523 16.2218 153.523 17.1663V91.8791C153.498 92.3914 153.352 92.8906 153.099 93.3363C152.845 93.7821 152.49 94.1618 152.062 94.4448L43.6442 157.074C42.8262 157.561 42.1836 156.777 42.1836 155.832V81.4798C42.2093 80.9677 42.3548 80.4688 42.6085 80.0232C42.8622 79.5775 43.2169 79.1977 43.6442 78.9141V78.9141Z" fill="#FAFAFA"/>
<path d="M152.724 16.5917C153.011 16.5917 153.055 16.952 153.055 17.1662V91.879C153.029 92.308 152.903 92.7249 152.688 93.0968C152.472 93.4686 152.173 93.7851 151.814 94.0212L43.4105 156.65C43.3377 156.697 43.2537 156.724 43.167 156.728C42.8944 156.728 42.6802 156.309 42.6802 155.832V81.4798C42.7037 81.0509 42.8257 80.6333 43.0368 80.2592C43.2479 79.8852 43.5423 79.5648 43.8973 79.323L152.305 16.728C152.431 16.6471 152.575 16.6001 152.724 16.5917M152.724 16.1049C152.489 16.1148 152.261 16.1853 152.062 16.3093L43.6442 78.9141C43.2169 79.1976 42.8622 79.5775 42.6085 80.0231C42.3548 80.4687 42.2093 80.9677 42.1836 81.4798V155.832C42.1836 156.582 42.6023 157.215 43.1573 157.215C43.3292 157.212 43.4972 157.163 43.6442 157.074L152.057 94.4447C152.485 94.1618 152.84 93.782 153.094 93.3363C153.347 92.8905 153.493 92.3913 153.518 91.879V17.1662C153.518 16.4943 153.187 16.1049 152.7 16.1049H152.724Z" fill="#E0E0E0"/>
<path d="M40.8878 156.047C41.0484 156.129 42.2023 156.787 42.7086 157.079C42.5268 156.928 42.3828 156.737 42.2881 156.52C42.1934 156.304 42.1507 156.068 42.1633 155.832V86.3338L40.2646 85.2238V154.756C40.2489 155.007 40.2979 155.257 40.4071 155.483C40.5163 155.709 40.6818 155.903 40.8878 156.047V156.047Z" fill="#F0F0F0"/>
<path d="M153.542 17.1516C153.542 16.2169 152.875 15.8371 152.081 16.3094L43.6442 78.9141C43.2169 79.1976 42.8622 79.5775 42.6085 80.0231C42.3548 80.4687 42.2093 80.9677 42.1836 81.4798V86.3483L153.542 22.0202V17.1516Z" fill="#071789"/>
<g opacity="0.4">
<path d="M152.063 16.3094L43.6448 78.9092C43.2096 79.1836 42.8512 79.5639 42.6029 80.0144L40.7188 78.919C40.9666 78.4842 41.322 78.1204 41.7509 77.8625L150.164 15.2334C150.319 15.122 150.502 15.055 150.692 15.0396C150.882 15.0241 151.074 15.0609 151.245 15.1458C151.508 15.3113 152.739 16.0075 153.056 16.1779C152.892 16.1172 152.716 16.0975 152.543 16.1204C152.37 16.1433 152.205 16.2082 152.063 16.3094V16.3094Z" fill="white"/>
</g>
<path opacity="0.15" d="M40.2656 85.2286V80.4039C40.2856 79.8781 40.4416 79.3664 40.7184 78.9189L42.6074 80.0095C42.3346 80.4493 42.1818 80.9529 42.1644 81.4701V86.3386L40.2656 85.2286Z" fill="black"/>
<path d="M130.678 73.1985L65.7458 110.686C65.4301 110.891 65.1672 111.168 64.9785 111.493C64.7898 111.819 64.6808 112.185 64.6602 112.561V131.178C64.6808 131.554 64.7898 131.92 64.9785 132.245C65.1672 132.571 65.4301 132.848 65.7458 133.052L67.6397 134.143C67.9763 134.313 68.3482 134.402 68.7254 134.402C69.1026 134.402 69.4745 134.313 69.8111 134.143L134.733 96.6552C135.049 96.4492 135.312 96.1718 135.501 95.8453C135.689 95.5188 135.798 95.1524 135.819 94.7759V76.1537C135.798 75.7779 135.689 75.4122 135.501 75.0865C135.312 74.7607 135.049 74.4842 134.733 74.2793L132.834 73.1887C132.499 73.0212 132.13 72.9349 131.755 72.9365C131.38 72.9382 131.011 73.028 130.678 73.1985Z" fill="#071789"/>
<path opacity="0.5" d="M135.818 75.9881C135.74 75.4282 135.287 75.2237 134.742 75.5402L69.8101 113.028C69.4899 113.227 69.2265 113.505 69.0457 113.836L64.9805 111.49C65.1627 111.164 65.4239 110.889 65.74 110.691L130.677 73.2033C131.012 73.0326 131.383 72.9437 131.76 72.9437C132.136 72.9437 132.508 73.0326 132.843 73.2033L134.742 74.2938C135.031 74.4835 135.277 74.7327 135.463 75.0249C135.648 75.317 135.769 75.6454 135.818 75.9881Z" fill="white"/>
<path d="M69.6261 134.236C69.3082 134.361 68.9674 134.418 68.626 134.403C68.2846 134.388 67.9502 134.301 67.6446 134.148L65.7458 133.057C65.4306 132.852 65.1681 132.575 64.9795 132.25C64.7909 131.924 64.6815 131.559 64.6602 131.183V112.566C64.6748 112.186 64.7853 111.815 64.9815 111.49L69.0467 113.836C68.8492 114.158 68.7384 114.525 68.7254 114.902V133.525C68.7254 134.143 69.1149 134.43 69.6261 134.236Z" fill="#263238"/>
<path d="M69.8103 113.028L134.742 75.5402C135.341 75.1945 135.828 75.4721 135.828 76.1634V94.7856C135.807 95.1621 135.698 95.5285 135.51 95.855C135.321 96.1815 135.058 96.4589 134.742 96.6649L69.8201 134.153C69.2212 134.498 68.7344 134.216 68.7344 133.525V114.907C68.7539 114.532 68.8615 114.166 69.0484 113.839C69.2353 113.513 69.4963 113.235 69.8103 113.028V113.028Z" fill="#071789"/>
<path d="M113.463 83.14L65.7517 110.691C65.4356 110.889 65.1744 111.164 64.9922 111.49L69.0574 113.836C69.2383 113.505 69.5016 113.227 69.8218 113.028L117.534 85.4818L113.463 83.14Z" fill="#455A64"/>
<path d="M117.524 85.4818L69.8122 113.028C69.4964 113.234 69.2335 113.511 69.0449 113.838C68.8562 114.164 68.7472 114.531 68.7266 114.907V133.52C68.7266 134.211 69.2134 134.494 69.8122 134.148L117.524 106.602V85.4818Z" fill="#37474F"/>
<path d="M80.8149 110.759L105.435 96.548C106.453 95.9589 107.28 96.3776 107.28 97.4828C107.235 98.1035 107.044 98.7047 106.722 99.2376C106.401 99.7706 105.958 100.22 105.43 100.55L80.8149 114.766C79.7974 115.355 78.9648 114.937 78.9648 113.831C79.0108 113.21 79.2021 112.608 79.5235 112.075C79.8449 111.541 80.2873 111.09 80.8149 110.759V110.759Z" fill="#071789"/>
<path d="M85.8597 115.467C85.8643 115.462 85.8699 115.458 85.8762 115.455C85.8825 115.452 85.8893 115.451 85.8962 115.451C85.9031 115.451 85.9099 115.452 85.9162 115.455C85.9225 115.458 85.9282 115.462 85.9327 115.467C85.9545 115.5 85.9648 115.54 85.9619 115.579V118.349C85.9623 118.617 85.9395 118.884 85.8938 119.148C85.8536 119.389 85.7849 119.624 85.6893 119.849C85.602 120.055 85.4874 120.248 85.3485 120.423C85.2115 120.586 85.0467 120.723 84.8616 120.827C84.7167 120.922 84.5477 120.973 84.3748 120.973C84.3087 120.968 84.2444 120.95 84.1858 120.919C84.1272 120.888 84.0755 120.845 84.034 120.793C83.9271 120.65 83.857 120.483 83.8295 120.307C83.7829 120.071 83.7617 119.831 83.7662 119.591V116.816C83.7661 116.767 83.776 116.719 83.7954 116.675C83.8074 116.634 83.8333 116.6 83.8685 116.577L84.1752 116.397C84.1851 116.388 84.1981 116.383 84.2117 116.383C84.2252 116.383 84.2383 116.388 84.2482 116.397C84.2707 116.43 84.281 116.469 84.2774 116.509V119.245C84.2737 119.396 84.2884 119.546 84.3212 119.693C84.3347 119.787 84.3753 119.875 84.4381 119.946C84.46 119.972 84.4877 119.993 84.5189 120.006C84.5502 120.02 84.5842 120.026 84.6182 120.024C84.7015 120.019 84.782 119.992 84.8519 119.946C84.9385 119.894 85.0172 119.831 85.0856 119.756C85.1616 119.669 85.224 119.57 85.2706 119.464C85.3255 119.339 85.3663 119.209 85.3923 119.075C85.4207 118.914 85.4338 118.751 85.4313 118.588V115.847C85.4328 115.798 85.4444 115.75 85.4653 115.706C85.4773 115.666 85.5032 115.631 85.5384 115.608L85.8597 115.467Z" fill="#FAFAFA"/>
<path d="M87.766 118.086C87.7686 118.051 87.7601 118.015 87.7417 117.984C87.7301 117.972 87.7157 117.962 87.6996 117.956C87.6835 117.95 87.6662 117.948 87.6492 117.95C87.5894 117.942 87.5288 117.942 87.4691 117.95L87.1867 118.004C87.0956 118.026 87.0003 118.026 86.9092 118.004C86.8377 117.981 86.776 117.934 86.7339 117.872C86.6863 117.793 86.6548 117.705 86.6414 117.614C86.5939 117.353 86.5939 117.086 86.6414 116.825C86.6779 116.676 86.7301 116.531 86.7972 116.392C86.8639 116.254 86.9455 116.123 87.0406 116.003C87.1328 115.888 87.2449 115.79 87.3717 115.715C87.4741 115.653 87.5886 115.613 87.7076 115.599C87.794 115.59 87.8809 115.608 87.9559 115.652C88.0273 115.696 88.0835 115.76 88.1166 115.837C88.1558 115.928 88.1773 116.026 88.1799 116.124C88.1849 116.173 88.1747 116.223 88.1506 116.266C88.1387 116.306 88.1128 116.34 88.0776 116.363L87.7855 116.533C87.7722 116.541 87.7571 116.545 87.7417 116.545C87.7263 116.545 87.7112 116.541 87.6979 116.533L87.6346 116.485C87.6094 116.465 87.5789 116.453 87.5469 116.451C87.4844 116.458 87.4243 116.479 87.3717 116.514C87.2952 116.56 87.2276 116.619 87.1721 116.689C87.1132 116.766 87.0822 116.86 87.0844 116.957C87.0776 116.994 87.0776 117.032 87.0844 117.069C87.0938 117.083 87.106 117.094 87.1203 117.103C87.1346 117.111 87.1507 117.116 87.1672 117.118C87.2204 117.127 87.2747 117.127 87.3279 117.118L87.6005 117.069C87.8293 117.025 87.9851 117.069 88.0874 117.196C88.1948 117.376 88.2441 117.585 88.2285 117.794C88.2273 117.939 88.2077 118.083 88.1701 118.223C88.1316 118.375 88.0761 118.522 88.0046 118.661C87.9331 118.805 87.8431 118.939 87.7368 119.06C87.636 119.178 87.5158 119.279 87.3814 119.357C87.2744 119.426 87.1525 119.467 87.026 119.479C86.9345 119.482 86.8442 119.457 86.768 119.406C86.6928 119.354 86.6351 119.281 86.6024 119.196C86.5631 119.104 86.5432 119.005 86.544 118.904C86.5395 118.854 86.5496 118.803 86.5732 118.758C86.5852 118.718 86.6111 118.684 86.6463 118.661L86.9384 118.491C86.9773 118.491 87.0065 118.466 87.026 118.491L87.0893 118.559C87.1022 118.573 87.118 118.585 87.1355 118.593C87.1531 118.602 87.1721 118.606 87.1915 118.607C87.2601 118.608 87.3268 118.585 87.3814 118.544C87.4693 118.494 87.5483 118.43 87.6151 118.354C87.6482 118.314 87.6761 118.27 87.6979 118.223C87.7323 118.184 87.7558 118.137 87.766 118.086V118.086Z" fill="#FAFAFA"/>
<path d="M88.7619 116.767C88.761 116.514 88.7822 116.262 88.8252 116.012C88.8658 115.778 88.9294 115.548 89.015 115.326C89.0866 115.127 89.1849 114.939 89.3072 114.766C89.4092 114.618 89.5421 114.493 89.6966 114.401C89.8095 114.325 89.9472 114.296 90.0813 114.318C90.2002 114.346 90.3045 114.417 90.3734 114.518C90.465 114.65 90.5295 114.799 90.5632 114.956C90.6099 115.16 90.6328 115.37 90.6314 115.579V115.881C90.6329 115.932 90.6212 115.982 90.5973 116.027C90.5854 116.067 90.5595 116.102 90.5243 116.124L89.2585 116.86C89.2555 116.945 89.267 117.031 89.2925 117.113C89.3114 117.168 89.3451 117.217 89.3899 117.254C89.4299 117.286 89.4802 117.301 89.5311 117.298C89.5899 117.291 89.6465 117.271 89.6966 117.239C89.7703 117.199 89.8362 117.147 89.8914 117.084C89.9412 117.027 89.9837 116.965 90.018 116.899C90.0388 116.86 90.0615 116.823 90.0861 116.787C90.107 116.762 90.1317 116.74 90.1592 116.723L90.461 116.548C90.4714 116.54 90.4842 116.535 90.4975 116.535C90.5108 116.535 90.5237 116.54 90.534 116.548C90.5468 116.563 90.5561 116.581 90.5611 116.601C90.5661 116.62 90.5669 116.64 90.5632 116.66C90.5579 116.755 90.5382 116.849 90.5048 116.938C90.4628 117.073 90.4074 117.203 90.3393 117.327C90.2631 117.47 90.1717 117.603 90.0666 117.726C89.9619 117.852 89.8368 117.959 89.6966 118.043C89.5816 118.118 89.4438 118.151 89.3072 118.135C89.1874 118.106 89.083 118.033 89.015 117.931C88.9192 117.783 88.8546 117.617 88.8252 117.444C88.7809 117.221 88.7597 116.994 88.7619 116.767V116.767ZM89.6966 115.214C89.6218 115.254 89.5569 115.311 89.5068 115.38C89.4527 115.448 89.4085 115.523 89.3753 115.604C89.3412 115.684 89.3135 115.767 89.2925 115.852C89.2754 115.929 89.264 116.007 89.2585 116.086L90.1153 115.599C90.1104 115.532 90.1006 115.465 90.0861 115.399C90.0787 115.34 90.0551 115.285 90.018 115.238C90.0034 115.217 89.9846 115.2 89.9628 115.186C89.941 115.173 89.9167 115.164 89.8914 115.16C89.8222 115.155 89.7531 115.174 89.6966 115.214V115.214Z" fill="#FAFAFA"/>
<path d="M92.1599 113.856C92.0123 113.94 91.8961 114.07 91.8288 114.226C91.753 114.431 91.7183 114.65 91.7266 114.868V116.626C91.7273 116.676 91.7173 116.726 91.6974 116.772C91.6854 116.812 91.6595 116.847 91.6243 116.869L91.3371 117.035C91.3325 117.04 91.3269 117.044 91.3206 117.047C91.3143 117.05 91.3075 117.051 91.3006 117.051C91.2937 117.051 91.2868 117.05 91.2805 117.047C91.2742 117.044 91.2686 117.04 91.264 117.035C91.2423 117.002 91.232 116.962 91.2348 116.923V113.773C91.2351 113.723 91.245 113.673 91.264 113.627C91.2777 113.588 91.3032 113.554 91.3371 113.53L91.6243 113.364C91.6342 113.355 91.6473 113.35 91.6608 113.35C91.6744 113.35 91.6874 113.355 91.6974 113.364C91.7199 113.395 91.7303 113.433 91.7266 113.471V113.627C91.7846 113.496 91.8564 113.372 91.9408 113.257C92.0178 113.15 92.1176 113.062 92.2329 112.999L92.4082 112.897C92.4173 112.888 92.4295 112.883 92.4422 112.883C92.455 112.883 92.4672 112.888 92.4763 112.897C92.4998 112.929 92.5118 112.969 92.5104 113.009V113.452C92.5096 113.502 92.4979 113.552 92.4763 113.598C92.464 113.636 92.4402 113.67 92.4082 113.695L92.1599 113.856Z" fill="#FAFAFA"/>
<path d="M95.7912 113.622C95.7958 113.617 95.8014 113.613 95.8077 113.61C95.814 113.607 95.8208 113.606 95.8277 113.606C95.8346 113.606 95.8414 113.607 95.8477 113.61C95.854 113.613 95.8597 113.617 95.8642 113.622C95.886 113.655 95.8963 113.694 95.8934 113.734V114.221C95.8932 114.271 95.8833 114.321 95.8642 114.367C95.8475 114.403 95.8225 114.435 95.7912 114.459L94.1261 115.433C94.1162 115.442 94.1032 115.447 94.0896 115.447C94.0761 115.447 94.063 115.442 94.0531 115.433C94.0313 115.402 94.021 115.364 94.0239 115.326V110.944C94.0242 110.894 94.0341 110.845 94.0531 110.798C94.0667 110.76 94.0924 110.728 94.1261 110.706L94.4329 110.526C94.4428 110.516 94.4558 110.511 94.4694 110.511C94.4829 110.511 94.496 110.516 94.5059 110.526C94.5277 110.557 94.538 110.595 94.5351 110.633V114.338L95.7912 113.622Z" fill="#FAFAFA"/>
<path d="M97.2863 110.019C97.3959 109.943 97.5282 109.907 97.6611 109.917C97.7752 109.926 97.8814 109.978 97.9581 110.063C98.0489 110.167 98.1154 110.29 98.1529 110.423C98.2049 110.596 98.2343 110.774 98.2405 110.954C98.2405 110.993 98.2405 111.047 98.2405 111.11V111.485C98.2405 111.543 98.2405 111.597 98.2405 111.641C98.2309 111.852 98.2015 112.062 98.1529 112.269C98.1079 112.469 98.0426 112.665 97.9581 112.853C97.881 113.027 97.7811 113.191 97.6611 113.34C97.5585 113.474 97.4313 113.588 97.2863 113.676C97.1736 113.749 97.0407 113.785 96.9065 113.778C96.7941 113.768 96.6896 113.716 96.6144 113.632C96.521 113.531 96.4541 113.409 96.4197 113.276C96.3677 113.104 96.3382 112.926 96.332 112.746C96.332 112.707 96.332 112.658 96.332 112.595V112.22C96.332 112.157 96.332 112.103 96.332 112.064C96.3377 111.851 96.3654 111.639 96.4148 111.431C96.4622 111.229 96.529 111.032 96.6144 110.842C96.6918 110.669 96.7898 110.505 96.9065 110.355C97.0097 110.219 97.1388 110.105 97.2863 110.019V110.019ZM97.7439 111.275C97.7437 111.168 97.7256 111.061 97.6904 110.959C97.6723 110.897 97.6347 110.842 97.5833 110.803C97.5418 110.775 97.4917 110.763 97.4421 110.769C97.3864 110.78 97.3335 110.801 97.2863 110.832C97.2291 110.864 97.1766 110.903 97.1305 110.949C97.0746 111.007 97.0271 111.073 96.9893 111.144C96.9404 111.233 96.9043 111.328 96.8822 111.426C96.8502 111.551 96.8307 111.678 96.8238 111.806C96.8238 111.845 96.8238 111.889 96.8238 111.942V112.288C96.8238 112.342 96.8238 112.385 96.8238 112.415C96.8283 112.522 96.848 112.629 96.8822 112.731C96.9 112.793 96.9376 112.848 96.9893 112.887C97.0095 112.901 97.0325 112.911 97.0568 112.916C97.0811 112.921 97.1062 112.921 97.1305 112.916C97.1857 112.907 97.2385 112.887 97.2863 112.858C97.3427 112.825 97.395 112.786 97.4421 112.741C97.4964 112.682 97.5438 112.616 97.5833 112.546C97.6301 112.457 97.6661 112.362 97.6904 112.264C97.7222 112.139 97.7401 112.012 97.7439 111.884C97.7468 111.839 97.7468 111.793 97.7439 111.748V111.407C97.7467 111.363 97.7467 111.319 97.7439 111.275Z" fill="#FAFAFA"/>
<path d="M99.7306 112.867C99.7929 112.829 99.8488 112.782 99.8962 112.726C99.9548 112.657 100.005 112.582 100.047 112.502C100.095 112.404 100.133 112.301 100.159 112.195C100.189 112.076 100.204 111.953 100.203 111.83V111.582C100.203 111.631 100.154 111.689 100.12 111.757C100.087 111.829 100.048 111.897 100.003 111.962C99.9524 112.03 99.8971 112.095 99.8377 112.157C99.7767 112.221 99.706 112.275 99.6284 112.317C99.5784 112.351 99.5219 112.375 99.4625 112.387C99.4031 112.398 99.3419 112.398 99.2827 112.385C99.1745 112.351 99.0815 112.281 99.0198 112.186C98.9404 112.06 98.8828 111.922 98.8494 111.777C98.8079 111.593 98.7851 111.405 98.7812 111.217C98.7813 111.154 98.7812 111.076 98.7812 110.983C98.7812 110.891 98.7812 110.813 98.7812 110.745C98.7873 110.531 98.8101 110.317 98.8494 110.107C98.8894 109.9 98.9464 109.696 99.0198 109.498C99.0887 109.327 99.1769 109.163 99.2827 109.011C99.3725 108.877 99.4905 108.764 99.6284 108.68C99.6931 108.641 99.7639 108.614 99.8377 108.598C99.8924 108.587 99.9486 108.587 100.003 108.598C100.046 108.61 100.086 108.631 100.12 108.661C100.151 108.685 100.179 108.713 100.203 108.744V108.588C100.203 108.538 100.213 108.488 100.232 108.442C100.246 108.404 100.271 108.371 100.305 108.349L100.592 108.179C100.602 108.17 100.615 108.165 100.629 108.165C100.642 108.165 100.655 108.17 100.665 108.179C100.689 108.211 100.701 108.251 100.699 108.291V111.455C100.713 111.929 100.625 112.401 100.441 112.838C100.298 113.182 100.049 113.472 99.7306 113.666C99.622 113.733 99.498 113.772 99.3703 113.778C99.2693 113.784 99.1689 113.758 99.0831 113.705C99.0008 113.643 98.9341 113.563 98.8884 113.471C98.8409 113.36 98.8145 113.241 98.8105 113.121C98.8059 113.07 98.8161 113.019 98.8397 112.974C98.8516 112.934 98.8775 112.9 98.9127 112.877L99.1707 112.731C99.1767 112.725 99.1838 112.72 99.1918 112.716C99.1997 112.713 99.2083 112.711 99.217 112.711C99.2257 112.711 99.2342 112.713 99.2422 112.716C99.2502 112.72 99.2573 112.725 99.2632 112.731C99.2872 112.756 99.3085 112.784 99.3265 112.814C99.3562 112.866 99.4051 112.904 99.4629 112.921C99.5213 112.965 99.6089 112.916 99.7306 112.867ZM99.273 110.506C99.273 110.636 99.273 110.763 99.273 110.886C99.2591 111.08 99.3142 111.273 99.4288 111.431C99.4721 111.468 99.5274 111.489 99.5846 111.489C99.6418 111.489 99.697 111.468 99.7404 111.431C99.8817 111.339 99.9919 111.207 100.057 111.051C100.145 110.848 100.195 110.63 100.203 110.409C100.203 110.336 100.203 110.248 100.203 110.146C100.203 110.044 100.203 109.956 100.203 109.893C100.213 109.718 100.161 109.546 100.057 109.406C100.014 109.366 99.9572 109.344 99.8986 109.344C99.84 109.344 99.7835 109.366 99.7404 109.406C99.6018 109.497 99.4934 109.628 99.4288 109.781C99.3288 110.01 99.2758 110.256 99.273 110.506V110.506Z" fill="#FAFAFA"/>
<path d="M101.832 106.183C101.842 106.175 101.854 106.171 101.867 106.171C101.879 106.171 101.891 106.175 101.901 106.183C101.926 106.214 101.938 106.255 101.935 106.295V106.826C101.935 106.876 101.923 106.926 101.901 106.972C101.887 107.008 101.863 107.04 101.832 107.064L101.506 107.254C101.502 107.259 101.496 107.263 101.49 107.266C101.483 107.269 101.477 107.27 101.47 107.27C101.463 107.27 101.456 107.269 101.45 107.266C101.443 107.263 101.438 107.259 101.433 107.254C101.421 107.239 101.411 107.222 101.405 107.204C101.399 107.186 101.397 107.166 101.399 107.147V106.616C101.399 106.566 101.411 106.515 101.433 106.47C101.447 106.432 101.472 106.4 101.506 106.378L101.832 106.183ZM101.915 110.754C101.915 110.803 101.905 110.851 101.886 110.896C101.871 110.934 101.845 110.967 101.813 110.993L101.521 111.159C101.517 111.164 101.512 111.168 101.506 111.171C101.5 111.173 101.493 111.175 101.487 111.175C101.48 111.175 101.474 111.173 101.468 111.171C101.462 111.168 101.457 111.164 101.453 111.159C101.427 111.127 101.415 111.087 101.419 111.047V107.897C101.418 107.846 101.43 107.796 101.453 107.751C101.466 107.713 101.49 107.679 101.521 107.653L101.813 107.488C101.823 107.478 101.836 107.473 101.85 107.473C101.863 107.473 101.876 107.478 101.886 107.488C101.908 107.519 101.918 107.557 101.915 107.595V110.754Z" fill="#FAFAFA"/>
<path d="M104.477 109.27C104.477 109.32 104.467 109.369 104.448 109.416C104.434 109.454 104.408 109.486 104.375 109.508L104.082 109.679C104.073 109.687 104.061 109.692 104.048 109.692C104.036 109.692 104.023 109.687 104.014 109.679C103.989 109.647 103.977 109.607 103.98 109.567V107.853C103.995 107.651 103.958 107.448 103.873 107.264C103.805 107.142 103.698 107.123 103.547 107.21C103.396 107.311 103.285 107.461 103.23 107.634C103.149 107.863 103.11 108.106 103.114 108.349V110.068C103.113 110.118 103.103 110.168 103.084 110.214C103.072 110.254 103.047 110.289 103.011 110.311L102.724 110.477C102.72 110.482 102.714 110.486 102.708 110.489C102.701 110.492 102.694 110.493 102.688 110.493C102.681 110.493 102.674 110.492 102.668 110.489C102.661 110.486 102.656 110.482 102.651 110.477C102.628 110.446 102.618 110.408 102.622 110.37V107.22C102.621 107.17 102.631 107.12 102.651 107.074C102.663 107.034 102.689 106.999 102.724 106.976L103.011 106.811C103.016 106.806 103.022 106.802 103.028 106.799C103.034 106.796 103.041 106.794 103.048 106.794C103.055 106.794 103.062 106.796 103.068 106.799C103.074 106.802 103.08 106.806 103.084 106.811C103.106 106.844 103.116 106.883 103.114 106.923V107.074C103.178 106.925 103.256 106.784 103.347 106.65C103.427 106.527 103.536 106.426 103.664 106.353C103.775 106.272 103.912 106.237 104.048 106.256C104.102 106.27 104.153 106.294 104.196 106.329C104.24 106.363 104.276 106.406 104.301 106.456C104.372 106.587 104.418 106.731 104.438 106.879C104.464 107.073 104.477 107.268 104.477 107.463V109.27Z" fill="#FAFAFA"/>
<path d="M129.031 95.0972L124.304 97.8236L125.039 91.1926C124.47 90.8907 124.109 90.1556 124.109 89.0991C124.109 87.215 125.258 85.029 126.67 84.2306C128.082 83.4321 129.226 84.2792 129.226 86.178C129.197 87.2951 128.878 88.3855 128.301 89.3425L129.031 95.0972Z" fill="#455A64"/>
<path d="M129.037 95.0972L124.874 92.697L124.305 97.8285L129.037 95.0972Z" fill="#37474F"/>
<path d="M126.662 84.216C125.632 84.9115 124.864 85.9311 124.48 87.1128L128.293 89.3134C128.87 88.3564 129.188 87.266 129.218 86.1488C129.227 84.2647 128.083 83.403 126.662 84.216Z" fill="#37474F"/>
<path d="M103.682 62.1371C102.061 61.2024 99.826 61.3338 97.3527 62.7603C92.416 65.6133 88.4141 72.5412 88.4141 78.2423C88.4141 81.105 89.4267 83.1109 91.0528 84.0359L94.2028 85.8665C95.8191 86.8012 98.0538 86.6649 100.532 85.2384C105.469 82.3903 109.471 75.4575 109.471 69.7564C109.471 66.9083 108.468 64.8879 106.851 63.9774" fill="#071789"/>
<path d="M100.529 64.5956C95.5918 67.4486 91.5898 74.3814 91.5898 80.0776C91.5898 85.7738 95.5918 88.0913 100.529 85.2383C105.465 82.3853 109.472 75.4574 109.467 69.7563C109.462 64.0552 105.46 61.7475 100.529 64.5956Z" fill="#071789"/>
<path d="M105.458 77.2441V77.8965C104.276 80.0076 102.579 81.786 100.527 83.0669C98.6035 84.1721 96.8654 84.2938 95.5898 83.5879V82.2441C95.6551 80.8461 96.0543 79.4841 96.7539 78.272C97.4536 77.0599 98.4334 76.033 99.6113 75.2772L100.911 74.5275C102.06 73.8654 103.18 73.7777 104.056 74.2889C104.933 74.8001 105.458 75.8761 105.458 77.2441Z" fill="#071789"/>
<path opacity="0.4" d="M103.683 62.1371L106.847 63.9774C105.231 63.0378 102.996 63.1692 100.518 64.5957C97.2854 66.4653 94.4519 70.0826 92.8843 73.958L89.7148 72.1225C91.2874 68.2277 94.0965 64.6298 97.3487 62.7603C99.8317 61.3387 102.066 61.2023 103.683 62.1371Z" fill="white"/>
<path opacity="0.2" d="M94.0898 85.7933L91.0567 84.0358C89.4306 83.1107 88.418 81.1146 88.418 78.2422L91.5874 80.0825C91.6069 82.8576 92.5416 84.8342 94.0898 85.7933Z" fill="black"/>
<path opacity="0.1" d="M89.7228 72.1224L92.8922 73.9579C92.0801 75.898 91.644 77.9747 91.6069 80.0776V80.0776L88.4375 78.2373C88.4766 76.1362 88.9127 74.0615 89.7228 72.1224Z" fill="black"/>
<path d="M99.3982 74.2208C99.0961 74.2241 98.7987 74.1468 98.5364 73.9968C98.2204 73.7861 97.9671 73.4939 97.8034 73.1511C97.6397 72.8083 97.5717 72.4277 97.6065 72.0494C97.6479 71.1624 97.901 70.2982 98.3449 69.5291C98.7887 68.76 99.4103 68.1083 100.158 67.6288V67.6288C100.458 67.3891 100.823 67.2456 101.206 67.2171C101.59 67.1885 101.972 67.2762 102.305 67.4687C102.637 67.6613 102.904 67.9496 103.07 68.2961C103.236 68.6425 103.293 69.031 103.235 69.4107C103.192 70.2975 102.939 71.1614 102.495 71.9304C102.051 72.6994 101.43 73.3511 100.683 73.8313C100.297 74.0725 99.8535 74.2069 99.3982 74.2208V74.2208Z" fill="white"/>
<path d="M104.056 74.2842C103.18 73.773 102.06 73.8606 100.911 74.5227L99.6113 75.2725C98.4327 76.0287 97.4525 77.0564 96.7529 78.2694C96.0532 79.4824 95.6544 80.8454 95.5898 82.2443V83.5928C96.8654 84.2988 98.6035 84.1771 100.527 83.0719C102.579 81.7909 104.276 80.0125 105.458 77.9015V77.2491C105.458 75.8762 104.952 74.8002 104.056 74.2842Z" fill="white"/>
<path d="M204.145 158.51C204.145 158.51 204.792 152.824 207.621 148.408C210.449 143.992 214.334 141.241 217.961 140.954C221.589 140.667 224.519 144.007 220.639 146.309C216.759 148.612 209.865 150.939 206.691 159.508L204.145 158.51Z" fill="#071789"/>
<path opacity="0.1" d="M204.145 158.51C204.145 158.51 204.792 152.824 207.621 148.408C210.449 143.992 214.334 141.241 217.961 140.954C221.589 140.667 224.519 144.007 220.639 146.309C216.759 148.612 209.865 150.939 206.691 159.508L204.145 158.51Z" fill="black"/>
<path d="M205.211 157.03H205.172C205.124 157.011 205.086 156.973 205.066 156.926C205.046 156.878 205.046 156.825 205.065 156.777C208.892 147.356 216.175 143.418 219.495 142.658C219.52 142.652 219.546 142.652 219.571 142.656C219.597 142.66 219.621 142.669 219.642 142.683C219.664 142.696 219.683 142.714 219.698 142.735C219.713 142.756 219.723 142.779 219.729 142.804C219.735 142.829 219.736 142.855 219.731 142.88C219.727 142.905 219.718 142.93 219.704 142.951C219.691 142.973 219.673 142.992 219.652 143.007C219.631 143.021 219.608 143.032 219.583 143.038C216.331 143.788 209.189 147.653 205.425 156.928C205.406 156.967 205.375 156.998 205.336 157.017C205.297 157.035 205.253 157.04 205.211 157.03V157.03Z" fill="white"/>
<path d="M224.577 157.142C224.251 157.882 223.443 158.271 222.693 158.573C221.943 158.875 221.125 159.201 220.716 159.902C219.899 161.314 221.242 163.31 220.366 164.678C220.16 164.954 219.9 165.185 219.602 165.357C219.304 165.529 218.974 165.64 218.633 165.681C218.073 165.784 217.503 165.784 216.938 165.832C216.668 165.829 216.398 165.808 216.13 165.769C215.344 165.593 214.521 165.681 213.789 166.017C212.664 166.65 212.328 168.067 211.637 169.162C211.214 169.807 210.658 170.354 210.005 170.764C209.352 171.174 208.618 171.438 207.854 171.538C207.367 171.602 206.393 171.694 205.906 171.407C205.868 171.388 205.832 171.365 205.799 171.339V171.339C205.726 171.261 205.639 171.159 205.6 171.105C205.597 171.094 205.597 171.082 205.6 171.071C205.4 170.336 205.726 169.576 205.741 168.817V168.68C205.707 167.799 205.682 166.923 205.663 166.047C205.621 164.424 205.605 162.801 205.614 161.178C205.614 160.126 205.497 158.977 205.945 157.989C206.432 156.899 207.659 156.874 208.122 155.808C208.307 155.38 208.404 154.927 208.584 154.493C208.862 153.864 209.308 153.322 209.873 152.928C210.438 152.534 211.1 152.303 211.788 152.259C213.925 152.152 215.838 153.88 217.975 153.719C218.526 153.676 219.066 153.505 219.611 153.408C221.34 153.082 223.341 153.573 224.314 155.039C224.528 155.341 224.664 155.69 224.71 156.057C224.756 156.424 224.71 156.797 224.577 157.142V157.142Z" fill="#071789"/>
<path d="M205.386 167.697C205.34 167.683 205.301 167.652 205.278 167.611C205.254 167.569 205.248 167.519 205.26 167.473C208.21 156.402 219.866 154.815 222.607 155C222.631 155.001 222.654 155.007 222.676 155.018C222.698 155.028 222.717 155.043 222.733 155.061C222.749 155.079 222.761 155.1 222.768 155.123C222.776 155.146 222.779 155.17 222.777 155.194C222.772 155.242 222.749 155.285 222.713 155.316C222.676 155.347 222.63 155.363 222.582 155.36C219.909 155.17 208.497 156.733 205.61 167.57C205.597 167.616 205.566 167.655 205.524 167.679C205.482 167.703 205.433 167.709 205.386 167.697V167.697Z" fill="white"/>
<path d="M218.35 162.088C218.313 162.083 218.279 162.066 218.253 162.04C217.175 161.106 215.905 160.421 214.532 160.035C213.159 159.649 211.718 159.57 210.312 159.805C210.265 159.809 210.217 159.796 210.179 159.767C210.141 159.738 210.116 159.696 210.107 159.649C210.1 159.602 210.112 159.553 210.14 159.514C210.169 159.475 210.211 159.448 210.258 159.44C211.725 159.196 213.228 159.279 214.659 159.684C216.09 160.089 217.413 160.805 218.535 161.782C218.552 161.798 218.566 161.819 218.575 161.841C218.585 161.863 218.589 161.887 218.589 161.911C218.589 161.935 218.585 161.959 218.575 161.981C218.566 162.003 218.552 162.023 218.535 162.04C218.513 162.066 218.483 162.085 218.45 162.094C218.417 162.102 218.382 162.1 218.35 162.088Z" fill="white"/>
<path d="M177.353 24.7953L178.902 25.3892V21.9812C178.902 19.2743 181.058 18.6268 183.4 19.9803C185.747 21.3337 187.646 24.62 187.646 27.3269V27.8138C187.972 27.714 188.317 27.6894 188.654 27.7417C188.991 27.7939 189.312 27.9218 189.593 28.1156C190.482 28.6954 191.222 29.4769 191.753 30.3964C192.283 31.316 192.589 32.3477 192.646 33.4077V33.6317L194.807 34.878C195.392 35.2598 195.879 35.7738 196.228 36.3785C196.577 36.9833 196.779 37.6617 196.818 38.3591C196.818 39.6443 195.917 40.1653 194.807 39.5226L177.353 29.4399C176.768 29.059 176.281 28.5451 175.933 27.9401C175.584 27.3351 175.384 26.6562 175.348 25.9588C175.348 24.6784 176.239 24.1575 177.353 24.7953Z" fill="#E6E6E6"/>
<path d="M198.089 22.0981L200.898 23.7193C200.883 23.5966 200.875 23.473 200.874 23.3493V22.5363C200.874 21.0757 201.887 20.5012 203.143 21.2266C203.682 21.5571 204.144 22.0006 204.496 22.5265C204.701 20.7057 206.132 20.029 207.865 21.027C208.856 21.6715 209.68 22.5402 210.272 23.5629C210.865 24.5855 211.207 25.7332 211.273 26.9131V28.1302C211.286 28.6165 211.187 29.0993 210.986 29.5421L213.323 30.8858C213.687 31.1274 213.989 31.451 214.206 31.8306C214.422 32.2102 214.547 32.6354 214.569 33.0718C214.569 33.8751 214.004 34.2013 213.308 33.8021L198.089 25.0387C197.721 24.7989 197.415 24.4754 197.196 24.0946C196.977 23.7138 196.851 23.2866 196.828 22.8479C196.828 22.0251 197.393 21.6989 198.089 22.0981Z" fill="#E6E6E6"/>
<path d="M187.211 95.988C185.166 99.4447 183.199 102.449 181.816 103.89C179.192 105.107 173.029 106.986 170.619 107.298C170.195 107.352 169.767 107.251 169.411 107.015C168.462 106.392 167.727 106.29 166.729 105.944C165.945 105.676 165.614 105.302 165.468 105.457C165.317 105.634 165.241 105.863 165.257 106.095C165.272 106.327 165.377 106.544 165.551 106.699C165.925 107.055 166.34 107.365 166.787 107.624C165.718 107.889 164.603 107.909 163.525 107.682C161.437 107.132 160.453 108.135 161.865 110.404C162.352 111.212 164.358 112.512 168.389 112.161C169.827 112.084 171.259 111.921 172.678 111.675C176.544 110.847 180.843 110.048 183.486 109.24C184.47 108.854 185.35 108.244 186.057 107.458C190.502 102.39 191.977 98.7777 193.924 95.4963L193.759 90.1409C190.604 90.0338 188.92 93.0961 187.211 95.988Z" fill="#FFA8A7"/>
<path d="M194.3 90.0338C193.386 89.9053 192.453 90.0291 191.604 90.3921C190.754 90.7551 190.02 91.3433 189.481 92.0932C187.319 94.8634 183.492 101.514 183.492 101.514C183.492 101.514 184.743 104.849 188.122 105.409L193.551 98.0767C193.551 98.0767 196.121 92.9842 194.3 90.0338Z" fill="#455A64"/>
<path d="M206.039 164.786H202.5V171.095H206.039V164.786Z" fill="#FFA8A7"/>
<path d="M193.769 164.45L190.235 164.576L190.055 157.897L193.769 157.77V164.45Z" fill="#FFA8A7"/>
<path d="M206.535 110.165C206.535 113.68 206.019 142.001 206.019 142.001C206.096 143.013 206.992 144.883 206.812 148.773C206.544 154.055 206.189 167.94 206.189 167.94C205.581 168.251 204.911 168.42 204.229 168.433C203.546 168.447 202.87 168.305 202.25 168.018C202.25 168.018 199.378 148.544 198.745 143.33C198.19 138.758 196.768 123.627 196.768 123.627L194.855 141.514C195.261 143.433 195.408 145.398 195.293 147.356C195.128 149.79 193.988 162.39 193.988 162.39C193.377 162.751 192.691 162.968 191.984 163.024C191.276 163.081 190.565 162.976 189.904 162.716C189.904 162.716 187.888 143.729 187.849 141.499C187.8 138.968 189.027 110.136 189.027 110.136L206.535 110.165Z" fill="#37474F"/>
<path d="M202.498 169.274V168.749C202.157 168.9 201.373 172.025 199.966 173.359C198.852 174.42 197.333 175.642 196.943 176.826C196.554 178.009 199.061 178.734 200.108 178.544C201.315 178.32 203.418 177.429 203.944 176.597C204.47 175.764 204.718 174.557 205.147 173.953C205.575 173.349 206.563 172.678 206.792 171.976C206.864 171.32 206.796 170.657 206.593 170.029C206.427 169.377 206.252 168.661 206.038 168.724V169.123C205.538 169.533 204.911 169.754 204.265 169.747C203.749 169.79 202.493 169.683 202.498 169.274Z" fill="#263238"/>
<path d="M190.196 163.437C190.011 163.437 189.861 163.714 189.456 164.172C188.856 164.804 188.153 165.331 187.378 165.73C186.053 166.421 183.483 167.483 182.309 168.033C181.579 168.374 181.613 169.289 182.368 169.81C183.122 170.331 184.938 170.706 187.12 170.199C188.307 169.922 189.856 168.778 190.839 168.841C191.823 168.904 193.648 168.885 194.374 168.354C195.099 167.824 194.807 166.723 194.603 165.774C194.379 164.732 194.116 163.111 193.77 163.184V163.549C193.346 164.221 191.151 164.493 190.216 164.002L190.196 163.437Z" fill="#263238"/>
<path d="M196.771 123.627C194.93 123.024 193.246 122.018 191.844 120.681C191.844 120.681 192.817 122.536 195.622 124.265L195.018 140.238L196.771 123.627Z" fill="#263238"/>
<path d="M204.558 90.5499C204.558 90.5499 207.479 91.2217 207.269 96.4992L206.661 104.897V117.507C204.061 120.457 192.542 120.243 188.574 117.273C188.574 117.273 189.022 102.351 189.29 96.6063C189.48 92.5265 190.419 90.472 194.431 90.024L199.363 90.2383L204.558 90.5499Z" fill="#071789"/>
<path d="M200.839 79.5859C200.856 80.2924 200.733 80.9953 200.477 81.654C200.221 82.3127 199.837 82.9142 199.347 83.4238C198.857 83.9334 198.272 84.341 197.624 84.6232C196.976 84.9054 196.278 85.0565 195.572 85.0678C192.651 85.0678 190.937 82.5459 190.304 79.5859C189.135 74.1672 192.66 74.099 195.572 74.099C196.998 74.1284 198.354 74.7229 199.342 75.7518C200.329 76.7807 200.868 78.1598 200.839 79.5859V79.5859Z" fill="#263238"/>
<path d="M203.526 81.801C203.526 81.801 202.718 85.7543 202.392 86.4067C202.187 86.7993 201.838 87.0976 201.418 87.2392L201.476 84.4593L203.526 81.801Z" fill="#263238"/>
<path d="M202.51 76.139C202.51 76.139 203.09 75.9929 203.708 76.9569C204.234 77.7797 204.355 79.6298 203.528 81.8255L202.004 82.0105L202.51 76.139Z" fill="#263238"/>
<path d="M203.07 76.9423L204.94 76.9764C204.953 76.8556 204.94 76.7334 204.904 76.6176C204.867 76.5017 204.807 76.3947 204.727 76.3033C204.647 76.2118 204.549 76.1379 204.439 76.0862C204.329 76.0345 204.209 76.006 204.088 76.0027C203.832 76.0064 203.587 76.1043 203.399 76.2777C203.211 76.4512 203.094 76.6878 203.07 76.9423Z" fill="#263238"/>
<path d="M203.297 76.4993L204.68 75.1701C204.6 75.0762 204.502 74.9998 204.391 74.9458C204.28 74.8917 204.16 74.8612 204.037 74.8562C203.914 74.8512 203.791 74.8717 203.676 74.9165C203.561 74.9614 203.457 75.0295 203.37 75.1166C203.187 75.2959 203.077 75.5376 203.064 75.7937C203.05 76.0498 203.134 76.3016 203.297 76.4993V76.4993Z" fill="#263238"/>
<path d="M201.545 81.9861C201.852 82.1759 202.285 81.5674 202.665 81.1535C203.044 80.7397 204.223 80.36 204.836 81.7037C205.45 83.0474 204.403 84.3765 203.526 84.8147C201.954 85.5937 201.457 84.4593 201.457 84.4593L201.326 90.7203C199.116 94.1282 194.101 94.0211 195.907 90.5547V88.6511C195.164 88.7746 194.41 88.8138 193.658 88.768C192.431 88.5732 191.662 87.5654 191.287 86.1828C190.693 83.9627 190.464 82.1711 190.97 77.804C191.525 73.0231 196.871 72.9695 199.734 74.8829C202.597 76.7962 201.545 81.9861 201.545 81.9861Z" fill="#FFA8A7"/>
<path d="M194.883 77.0591C196.159 76.9325 197.42 76.6696 198.7 76.5723C198.976 76.5388 199.256 76.552 199.528 76.6112C200.502 76.879 200.385 78.0182 200.541 78.8118C200.808 80.1847 201.027 82.507 201.543 82.5168C201.699 82.5168 202.284 81.509 202.663 81.1487C202.872 80.8383 202.99 80.4758 203.004 80.102C203.101 79.5372 203.15 78.9579 203.194 78.3834C203.233 77.8965 203.282 77.4097 203.282 76.9228C203.304 76.3726 203.26 75.8217 203.15 75.2821C203.028 74.823 202.794 74.4014 202.469 74.0552L202.371 73.9481C201.729 73.2772 200.951 72.7525 200.088 72.4097C198.846 71.9446 197.544 71.6609 196.222 71.5674C194.902 71.4739 193.587 71.3114 192.284 71.0805C192.209 71.0588 192.129 71.0588 192.055 71.0805C192.002 71.1098 191.957 71.1519 191.925 71.2029C191.893 71.254 191.874 71.3123 191.87 71.3726C191.816 71.6752 191.85 71.9867 191.966 72.271C192.082 72.5553 192.277 72.8009 192.527 72.9793C191.646 73.0474 190.633 72.5898 189.786 72.3561C189.717 72.327 189.644 72.3121 189.569 72.3121C189.495 72.3121 189.421 72.327 189.353 72.3561C189.268 72.4155 189.207 72.5037 189.182 72.6044C189.121 72.8331 189.112 73.073 189.158 73.3055C189.235 74.0101 189.497 74.6818 189.917 75.2529C190.574 76.1072 191.501 76.7132 192.546 76.9715C193.316 77.1199 194.104 77.1495 194.883 77.0591V77.0591Z" fill="#263238"/>
<path d="M195.91 88.6511C195.91 88.6511 198.646 88.0766 199.601 87.5459C200.169 87.235 200.63 86.7599 200.925 86.1827C200.781 86.7626 200.525 87.3085 200.17 87.7894C199.474 88.7241 195.91 89.4057 195.91 89.4057V88.6511Z" fill="#F28F8F"/>
<path d="M196.571 81.2704C196.565 81.4207 196.62 81.567 196.722 81.6773C196.824 81.7877 196.966 81.8532 197.116 81.8595C197.235 81.8693 197.355 81.8429 197.459 81.7836C197.563 81.7244 197.646 81.6351 197.699 81.5275C197.751 81.4199 197.77 81.299 197.752 81.1806C197.735 81.0622 197.682 80.9519 197.601 80.8641C197.519 80.7763 197.413 80.715 197.297 80.6884C197.18 80.6618 197.058 80.6711 196.947 80.715C196.835 80.759 196.74 80.8355 196.673 80.9346C196.606 81.0337 196.57 81.1507 196.571 81.2704V81.2704Z" fill="#263238"/>
<path d="M197.445 78.9091L198.619 79.5858C198.704 79.419 198.723 79.2261 198.673 79.0456C198.622 78.8652 198.506 78.7104 198.346 78.6121C198.268 78.5685 198.182 78.5415 198.093 78.5329C198.005 78.5243 197.915 78.5343 197.83 78.5622C197.746 78.5902 197.668 78.6354 197.601 78.6952C197.535 78.7549 197.482 78.8277 197.445 78.9091V78.9091Z" fill="#263238"/>
<path d="M196.154 85.2188L194.902 85.7056C194.928 85.7914 194.97 85.8711 195.027 85.9398C195.085 86.0085 195.155 86.0647 195.235 86.1049C195.315 86.1451 195.402 86.1684 195.492 86.1734C195.581 86.1784 195.67 86.165 195.754 86.134C195.925 86.0607 196.061 85.9253 196.135 85.7553C196.209 85.5853 196.216 85.3935 196.154 85.2188V85.2188Z" fill="#F28F8F"/>
<path d="M191.535 79.4107L192.606 78.5538C192.558 78.479 192.495 78.4152 192.421 78.3664C192.346 78.3177 192.263 78.2851 192.175 78.2709C192.087 78.2566 191.997 78.261 191.912 78.2838C191.826 78.3065 191.746 78.3471 191.676 78.4029C191.533 78.5242 191.44 78.694 191.414 78.8798C191.388 79.0657 191.431 79.2546 191.535 79.4107V79.4107Z" fill="#263238"/>
<path d="M192.008 81.1097C192.017 81.2162 192.056 81.318 192.122 81.4025C192.187 81.487 192.276 81.5507 192.377 81.5857C192.478 81.6207 192.587 81.6255 192.69 81.5996C192.794 81.5737 192.888 81.5181 192.96 81.4397C193.033 81.3613 193.081 81.2635 193.099 81.1581C193.117 81.0528 193.104 80.9445 193.061 80.8465C193.019 80.7485 192.948 80.665 192.859 80.6063C192.77 80.5475 192.665 80.5161 192.558 80.5157C192.483 80.5183 192.409 80.5356 192.341 80.5669C192.272 80.5982 192.211 80.6428 192.16 80.698C192.108 80.7532 192.069 80.818 192.043 80.8887C192.017 80.9594 192.005 81.0345 192.008 81.1097V81.1097Z" fill="#263238"/>
<path d="M194.944 80.6521L194.881 84.1136L192.914 83.6657L194.944 80.6521Z" fill="#F28F8F"/>
<path d="M148.234 109.644L151.287 107.882L152.494 106.417L149.447 108.179L148.234 109.644Z" fill="#071789"/>
<path opacity="0.4" d="M148.234 109.644L151.287 107.882L152.494 106.417L149.447 108.179L148.234 109.644Z" fill="black"/>
<path d="M156.535 114.435L159.588 112.673L162.134 110.418L159.086 112.176L156.535 114.435Z" fill="#071789"/>
<path opacity="0.4" d="M156.535 114.435L159.588 112.673L162.134 110.418L159.086 112.176L156.535 114.435Z" fill="black"/>
<path d="M182.464 120.516C183.186 121.483 183.623 122.633 183.725 123.836C183.007 122.867 182.57 121.718 182.464 120.516V120.516ZM189.558 120.608C188.53 113.622 184.777 106.713 180.307 104.128C178.16 102.887 176.174 102.843 174.582 103.773L171.71 105.428L171.549 105.525C171.421 105.596 171.297 105.674 171.179 105.759C170.943 105.922 170.721 106.104 170.517 106.304L170.419 106.397C170.332 106.485 170.239 106.587 170.157 106.684C170.074 106.782 169.947 106.932 169.85 107.064C169.643 107.336 169.456 107.622 169.29 107.921C169.202 108.072 169.12 108.232 169.042 108.408L143.954 93.9286L140.906 95.6861V97.6336L141.164 97.7796L141.408 97.9208V98.3103L140.921 98.5975V99.727L144.606 107.517L148.248 109.625L149.46 108.164L152.674 110.087L154.519 113.247L156.554 114.42L159.1 112.161L162.226 113.968L163.277 118.305L168.53 121.343C168.79 122.447 169.115 123.535 169.504 124.6C169.538 124.708 169.582 124.82 169.626 124.941C171.369 129.518 174.139 133.437 177.265 135.243C177.639 135.465 178.032 135.656 178.438 135.813C178.653 135.898 178.872 135.971 179.095 136.032C179.29 136.084 179.485 136.128 179.679 136.163C180.294 136.275 180.924 136.275 181.539 136.163L181.792 136.1C181.913 136.076 182.032 136.041 182.148 135.998L182.42 135.891C182.517 135.856 182.61 135.812 182.698 135.759C182.788 135.72 182.876 135.676 182.961 135.628L183.087 135.55C183.11 135.542 183.132 135.531 183.151 135.516C183.847 135.117 185.561 134.123 186.028 133.86C188.345 132.517 189.845 129.118 189.845 124.313C189.841 123.073 189.745 121.834 189.558 120.608V120.608Z" fill="#071789"/>
<path d="M181.574 126.412C180.367 125.715 179.393 123.651 179.393 121.801C179.393 119.951 180.367 119.011 181.574 119.703C182.782 120.394 183.75 122.463 183.75 124.318C183.75 126.173 182.777 127.108 181.574 126.412ZM186.506 122.366C185.484 115.384 181.73 108.471 177.256 105.891C175.182 104.693 173.264 104.605 171.706 105.428L171.545 105.526C171.417 105.596 171.294 105.674 171.175 105.759C170.939 105.922 170.718 106.104 170.513 106.304L170.416 106.397C170.328 106.485 170.235 106.587 170.153 106.684C170.07 106.782 169.943 106.933 169.846 107.064C169.639 107.336 169.452 107.622 169.286 107.921C169.198 108.072 169.116 108.232 169.038 108.408C168.584 109.349 168.256 110.346 168.064 111.373L140.902 95.6862V97.6336L141.16 97.7796L141.404 97.9208V98.3103L140.917 98.5975V99.7271L144.602 107.517L148.244 109.625L149.456 108.164L152.67 110.087L154.515 113.247L156.55 114.42L159.096 112.161L162.222 113.968L163.273 118.305L168.531 121.343C168.791 122.447 169.116 123.535 169.505 124.6C169.539 124.708 169.583 124.82 169.627 124.941C171.37 129.518 174.14 133.437 177.266 135.243C177.64 135.465 178.033 135.656 178.439 135.813C178.654 135.898 178.873 135.971 179.096 136.032C179.291 136.084 179.486 136.128 179.68 136.163C180.295 136.275 180.925 136.275 181.54 136.163L181.793 136.1C181.914 136.076 182.033 136.041 182.149 135.998L182.421 135.891C182.518 135.856 182.611 135.812 182.699 135.759C182.789 135.72 182.877 135.676 182.962 135.628L183.088 135.55C183.111 135.542 183.133 135.531 183.152 135.516C185.372 134.114 186.798 130.764 186.798 126.076C186.79 124.834 186.692 123.594 186.506 122.366V122.366Z" fill="#071789"/>
<path opacity="0.4" d="M183.752 124.313C183.752 126.168 182.778 127.108 181.576 126.412C180.373 125.715 179.395 123.656 179.395 121.801C179.395 119.946 180.368 119.007 181.576 119.703C181.923 119.914 182.226 120.192 182.467 120.521C182.571 121.723 183.008 122.872 183.728 123.841C183.745 123.998 183.753 124.155 183.752 124.313V124.313Z" fill="black"/>
<path opacity="0.4" d="M189.838 124.308C189.838 129.114 188.338 132.512 186.021 133.856C185.534 134.119 183.839 135.112 183.143 135.511C185.363 134.109 186.79 130.759 186.79 126.071C186.785 124.831 186.69 123.592 186.507 122.366C185.485 115.384 181.731 108.471 177.257 105.891C175.183 104.693 173.265 104.605 171.707 105.428L174.579 103.773C176.172 102.843 178.158 102.887 180.305 104.128C184.779 106.713 188.533 113.622 189.555 120.608C189.741 121.833 189.835 123.07 189.838 124.308V124.308Z" fill="white"/>
<path d="M186.787 126.061C186.787 130.75 185.361 134.099 183.141 135.501C183.837 135.102 185.551 134.109 186.018 133.846C188.335 132.502 189.835 129.104 189.835 124.299C189.835 124.123 189.835 123.943 189.835 123.763L186.787 125.526C186.782 125.715 186.787 125.891 186.787 126.061Z" fill="#071789"/>
<path opacity="0.1" d="M186.787 126.061C186.787 130.75 185.361 134.099 183.141 135.501C183.837 135.102 185.551 134.109 186.018 133.846C188.335 132.502 189.835 129.104 189.835 124.299C189.835 124.123 189.835 123.943 189.835 123.763L186.787 125.526C186.782 125.715 186.787 125.891 186.787 126.061Z" fill="black"/>
<path opacity="0.15" d="M168.18 113.364V114.352L140.906 98.6073L141.408 98.3152V97.9062L168.18 113.364Z" fill="black"/>
<path opacity="0.15" d="M168.18 113.773V114.352L140.906 98.6073L141.408 98.3152V98.3103L168.18 113.773Z" fill="black"/>
<path opacity="0.15" d="M180.042 133.851C179.008 133.824 178 133.523 177.121 132.979C172.676 130.414 169.059 122.78 169.059 115.964C169.059 111.986 170.261 109.016 172.359 107.804C173.82 106.957 175.548 107.064 177.364 108.111C181.804 110.677 185.422 118.335 185.422 125.151C185.422 129.123 184.219 132.098 182.121 133.306C181.488 133.667 180.771 133.855 180.042 133.851ZM174.468 107.731C173.819 107.727 173.181 107.895 172.618 108.218C170.704 109.323 169.56 112.22 169.56 115.959C169.56 122.619 173.065 130.078 177.379 132.551C179.029 133.525 180.592 133.612 181.892 132.863C183.805 131.757 184.95 128.865 184.95 125.126C184.95 118.461 181.444 111.008 177.136 108.53C176.33 108.04 175.41 107.771 174.468 107.751V107.731Z" fill="black"/>
<path opacity="0.4" d="M169.018 108.398C168.564 109.339 168.237 110.336 168.044 111.363L140.883 95.6765L143.931 93.9189L169.018 108.398Z" fill="white"/>
<path d="M204.319 109.922C205.741 107.23 207.367 101.183 208.175 98.1302C209.324 93.7972 207.464 91.0708 205.351 90.9589C204.032 91.1633 199.684 106.972 199.684 106.972C199.197 107.356 192.591 110.711 190.468 111.553C190.088 111.696 189.669 111.696 189.29 111.553C188.272 111.183 187.576 111.251 186.578 111.154C185.794 111.076 185.4 110.798 185.298 110.964C185.205 111.169 185.193 111.402 185.264 111.616C185.335 111.83 185.485 112.009 185.682 112.118C186.112 112.368 186.569 112.567 187.045 112.712C186.192 112.97 185.303 113.09 184.411 113.067C182.367 113.023 181.632 113.909 183.219 115.988C184.192 117.283 185.804 117.692 189.402 116.451C190.434 116.09 191.836 115.394 193.146 114.922C195.843 113.948 196.554 113.831 198.608 113.135C201.602 112.122 203.686 111.12 204.319 109.922Z" fill="#FFA8A7"/>
<path d="M204.557 90.5499C205.799 90.7203 206.992 90.9978 207.727 92.0105C208.462 93.0232 209.051 94.4448 208.331 98.3153C207.779 101.037 207.04 103.718 206.12 106.339C206.12 106.339 203.228 107.575 200.156 104.44L202.269 96.2705C202.269 96.2705 202.61 90.9589 204.557 90.5499Z" fill="#455A64"/>
</svg>
