<svg width="410" height="40" viewBox="0 0 410 40" fill="none" xmlns="http://www.w3.org/2000/svg">
<rect width="50" height="40" fill="white"/>
<path d="M23.6955 16.937V18.314H22.6875V19.997H23.6955V25H25.7675V19.997H27.1575C27.1575 19.997 27.2885 19.19 27.3515 18.307H25.7755V17.157C25.7755 16.984 26.0015 16.753 26.2255 16.753H27.3535V15H25.8185C23.6445 15 23.6955 16.685 23.6955 16.937Z" fill="#071789"/>
<path d="M19 12C18.4696 12 17.9609 12.2107 17.5858 12.5858C17.2107 12.9609 17 13.4696 17 14V26C17 26.5304 17.2107 27.0391 17.5858 27.4142C17.9609 27.7893 18.4696 28 19 28H31C31.5304 28 32.0391 27.7893 32.4142 27.4142C32.7893 27.0391 33 26.5304 33 26V14C33 13.4696 32.7893 12.9609 32.4142 12.5858C32.0391 12.2107 31.5304 12 31 12H19ZM19 10H31C32.0609 10 33.0783 10.4214 33.8284 11.1716C34.5786 11.9217 35 12.9391 35 14V26C35 27.0609 34.5786 28.0783 33.8284 28.8284C33.0783 29.5786 32.0609 30 31 30H19C17.9391 30 16.9217 29.5786 16.1716 28.8284C15.4214 28.0783 15 27.0609 15 26V14C15 12.9391 15.4214 11.9217 16.1716 11.1716C16.9217 10.4214 17.9391 10 19 10V10Z" fill="#071789"/>
<path d="M53.208 23.57C52.7413 23.57 52.3213 23.49 51.948 23.33C51.5746 23.1633 51.2813 22.93 51.068 22.63C50.8546 22.33 50.748 21.98 50.748 21.58H51.968C51.9946 21.88 52.1113 22.1267 52.318 22.32C52.5313 22.5133 52.828 22.61 53.208 22.61C53.6013 22.61 53.908 22.5167 54.128 22.33C54.348 22.1367 54.458 21.89 54.458 21.59C54.458 21.3567 54.388 21.1667 54.248 21.02C54.1146 20.8733 53.9446 20.76 53.738 20.68C53.538 20.6 53.258 20.5133 52.898 20.42C52.4446 20.3 52.0746 20.18 51.788 20.06C51.508 19.9333 51.268 19.74 51.068 19.48C50.868 19.22 50.768 18.8733 50.768 18.44C50.768 18.04 50.868 17.69 51.068 17.39C51.268 17.09 51.548 16.86 51.908 16.7C52.268 16.54 52.6846 16.46 53.158 16.46C53.8313 16.46 54.3813 16.63 54.808 16.97C55.2413 17.3033 55.4813 17.7633 55.528 18.35H54.268C54.248 18.0967 54.128 17.88 53.908 17.7C53.688 17.52 53.398 17.43 53.038 17.43C52.7113 17.43 52.4446 17.5133 52.238 17.68C52.0313 17.8467 51.928 18.0867 51.928 18.4C51.928 18.6133 51.9913 18.79 52.118 18.93C52.2513 19.0633 52.418 19.17 52.618 19.25C52.818 19.33 53.0913 19.4167 53.438 19.51C53.898 19.6367 54.2713 19.7633 54.558 19.89C54.8513 20.0167 55.098 20.2133 55.298 20.48C55.5046 20.74 55.608 21.09 55.608 21.53C55.608 21.8833 55.5113 22.2167 55.318 22.53C55.1313 22.8433 54.8546 23.0967 54.488 23.29C54.128 23.4767 53.7013 23.57 53.208 23.57ZM59.3431 23.59C58.8231 23.59 58.3531 23.4733 57.9331 23.24C57.5131 23 57.1831 22.6667 56.9431 22.24C56.7031 21.8067 56.5831 21.3067 56.5831 20.74C56.5831 20.18 56.7065 19.6833 56.9531 19.25C57.1998 18.8167 57.5365 18.4833 57.9631 18.25C58.3898 18.0167 58.8665 17.9 59.3931 17.9C59.9198 17.9 60.3965 18.0167 60.8231 18.25C61.2498 18.4833 61.5865 18.8167 61.8331 19.25C62.0798 19.6833 62.2031 20.18 62.2031 20.74C62.2031 21.3 62.0765 21.7967 61.8231 22.23C61.5698 22.6633 61.2231 23 60.7831 23.24C60.3498 23.4733 59.8698 23.59 59.3431 23.59ZM59.3431 22.6C59.6365 22.6 59.9098 22.53 60.1631 22.39C60.4231 22.25 60.6331 22.04 60.7931 21.76C60.9531 21.48 61.0331 21.14 61.0331 20.74C61.0331 20.34 60.9565 20.0033 60.8031 19.73C60.6498 19.45 60.4465 19.24 60.1931 19.1C59.9398 18.96 59.6665 18.89 59.3731 18.89C59.0798 18.89 58.8065 18.96 58.5531 19.1C58.3065 19.24 58.1098 19.45 57.9631 19.73C57.8165 20.0033 57.7431 20.34 57.7431 20.74C57.7431 21.3333 57.8931 21.7933 58.1931 22.12C58.4998 22.44 58.8831 22.6 59.3431 22.6ZM67.1601 23.5L64.4701 20.39V23.5H63.3301V16.55H64.4701V19.72L67.1701 16.55H68.6001L65.5801 20.03L68.6501 23.5H67.1601ZM70.7982 16.1V23.5H69.6582V16.1H70.7982ZM72.8749 17.26C72.6683 17.26 72.4949 17.19 72.3549 17.05C72.2149 16.91 72.1449 16.7367 72.1449 16.53C72.1449 16.3233 72.2149 16.15 72.3549 16.01C72.4949 15.87 72.6683 15.8 72.8749 15.8C73.0749 15.8 73.2449 15.87 73.3849 16.01C73.5249 16.15 73.5949 16.3233 73.5949 16.53C73.5949 16.7367 73.5249 16.91 73.3849 17.05C73.2449 17.19 73.0749 17.26 72.8749 17.26ZM73.4349 17.99V23.5H72.2949V17.99H73.4349ZM77.7116 17.9C78.145 17.9 78.5316 17.99 78.8716 18.17C79.2183 18.35 79.4883 18.6167 79.6816 18.97C79.875 19.3233 79.9716 19.75 79.9716 20.25V23.5H78.8416V20.42C78.8416 19.9267 78.7183 19.55 78.4716 19.29C78.225 19.0233 77.8883 18.89 77.4616 18.89C77.035 18.89 76.695 19.0233 76.4416 19.29C76.195 19.55 76.0716 19.9267 76.0716 20.42V23.5H74.9316V17.99H76.0716V18.62C76.2583 18.3933 76.495 18.2167 76.7816 18.09C77.075 17.9633 77.385 17.9 77.7116 17.9ZM83.6958 16.55C84.4358 16.55 85.0824 16.6933 85.6358 16.98C86.1958 17.26 86.6258 17.6667 86.9258 18.2C87.2324 18.7267 87.3858 19.3433 87.3858 20.05C87.3858 20.7567 87.2324 21.37 86.9258 21.89C86.6258 22.41 86.1958 22.81 85.6358 23.09C85.0824 23.3633 84.4358 23.5 83.6958 23.5H81.4258V16.55H83.6958ZM83.6958 22.57C84.5091 22.57 85.1324 22.35 85.5658 21.91C85.9991 21.47 86.2158 20.85 86.2158 20.05C86.2158 19.2433 85.9991 18.6133 85.5658 18.16C85.1324 17.7067 84.5091 17.48 83.6958 17.48H82.5658V22.57H83.6958ZM93.5656 20.61C93.5656 20.8167 93.5523 21.0033 93.5256 21.17H89.3156C89.349 21.61 89.5123 21.9633 89.8056 22.23C90.099 22.4967 90.459 22.63 90.8856 22.63C91.499 22.63 91.9323 22.3733 92.1856 21.86H93.4156C93.249 22.3667 92.9456 22.7833 92.5056 23.11C92.0723 23.43 91.5323 23.59 90.8856 23.59C90.359 23.59 89.8856 23.4733 89.4656 23.24C89.0523 23 88.7256 22.6667 88.4856 22.24C88.2523 21.8067 88.1356 21.3067 88.1356 20.74C88.1356 20.1733 88.249 19.6767 88.4756 19.25C88.709 18.8167 89.0323 18.4833 89.4456 18.25C89.8656 18.0167 90.3456 17.9 90.8856 17.9C91.4056 17.9 91.869 18.0133 92.2756 18.24C92.6823 18.4667 92.999 18.7867 93.2256 19.2C93.4523 19.6067 93.5656 20.0767 93.5656 20.61ZM92.3756 20.25C92.369 19.83 92.219 19.4933 91.9256 19.24C91.6323 18.9867 91.269 18.86 90.8356 18.86C90.4423 18.86 90.1056 18.9867 89.8256 19.24C89.5456 19.4867 89.379 19.8233 89.3256 20.25H92.3756ZM96.0175 18.92V21.97C96.0175 22.1767 96.0642 22.3267 96.1575 22.42C96.2575 22.5067 96.4242 22.55 96.6575 22.55H97.3575V23.5H96.4575C95.9442 23.5 95.5508 23.38 95.2775 23.14C95.0042 22.9 94.8675 22.51 94.8675 21.97V18.92H94.2175V17.99H94.8675V16.62H96.0175V17.99H97.3575V18.92H96.0175ZM103.458 20.61C103.458 20.8167 103.445 21.0033 103.418 21.17H99.2082C99.2415 21.61 99.4049 21.9633 99.6982 22.23C99.9915 22.4967 100.352 22.63 100.778 22.63C101.392 22.63 101.825 22.3733 102.078 21.86H103.308C103.142 22.3667 102.838 22.7833 102.398 23.11C101.965 23.43 101.425 23.59 100.778 23.59C100.252 23.59 99.7782 23.4733 99.3582 23.24C98.9449 23 98.6182 22.6667 98.3782 22.24C98.1449 21.8067 98.0282 21.3067 98.0282 20.74C98.0282 20.1733 98.1415 19.6767 98.3682 19.25C98.6015 18.8167 98.9249 18.4833 99.3382 18.25C99.7582 18.0167 100.238 17.9 100.778 17.9C101.298 17.9 101.762 18.0133 102.168 18.24C102.575 18.4667 102.892 18.7867 103.118 19.2C103.345 19.6067 103.458 20.0767 103.458 20.61ZM102.268 20.25C102.262 19.83 102.112 19.4933 101.818 19.24C101.525 18.9867 101.162 18.86 100.728 18.86C100.335 18.86 99.9982 18.9867 99.7182 19.24C99.4382 19.4867 99.2715 19.8233 99.2182 20.25H102.268ZM105.72 18.79C105.887 18.51 106.107 18.2933 106.38 18.14C106.66 17.98 106.99 17.9 107.37 17.9V19.08H107.08C106.633 19.08 106.293 19.1933 106.06 19.42C105.833 19.6467 105.72 20.04 105.72 20.6V23.5H104.58V17.99H105.72V18.79ZM110.638 17.9C111.065 17.9 111.441 17.9867 111.768 18.16C112.101 18.3267 112.361 18.5367 112.548 18.79V17.99H113.698V23.59C113.698 24.0967 113.591 24.5467 113.378 24.94C113.165 25.34 112.855 25.6533 112.448 25.88C112.048 26.1067 111.568 26.22 111.008 26.22C110.261 26.22 109.641 26.0433 109.148 25.69C108.655 25.3433 108.375 24.87 108.308 24.27H109.438C109.525 24.5567 109.708 24.7867 109.988 24.96C110.275 25.14 110.615 25.23 111.008 25.23C111.468 25.23 111.838 25.09 112.118 24.81C112.405 24.53 112.548 24.1233 112.548 23.59V22.67C112.355 22.93 112.091 23.15 111.758 23.33C111.431 23.5033 111.058 23.59 110.638 23.59C110.158 23.59 109.718 23.47 109.318 23.23C108.925 22.9833 108.611 22.6433 108.378 22.21C108.151 21.77 108.038 21.2733 108.038 20.72C108.038 20.1667 108.151 19.6767 108.378 19.25C108.611 18.8233 108.925 18.4933 109.318 18.26C109.718 18.02 110.158 17.9 110.638 17.9ZM112.548 20.74C112.548 20.36 112.468 20.03 112.308 19.75C112.155 19.47 111.951 19.2567 111.698 19.11C111.445 18.9633 111.171 18.89 110.878 18.89C110.585 18.89 110.311 18.9633 110.058 19.11C109.805 19.25 109.598 19.46 109.438 19.74C109.285 20.0133 109.208 20.34 109.208 20.72C109.208 21.1 109.285 21.4333 109.438 21.72C109.598 22.0067 109.805 22.2267 110.058 22.38C110.318 22.5267 110.591 22.6 110.878 22.6C111.171 22.6 111.445 22.5267 111.698 22.38C111.951 22.2333 112.155 22.02 112.308 21.74C112.468 21.4533 112.548 21.12 112.548 20.74ZM120.245 20.61C120.245 20.8167 120.232 21.0033 120.205 21.17H115.995C116.029 21.61 116.192 21.9633 116.485 22.23C116.779 22.4967 117.139 22.63 117.565 22.63C118.179 22.63 118.612 22.3733 118.865 21.86H120.095C119.929 22.3667 119.625 22.7833 119.185 23.11C118.752 23.43 118.212 23.59 117.565 23.59C117.039 23.59 116.565 23.4733 116.145 23.24C115.732 23 115.405 22.6667 115.165 22.24C114.932 21.8067 114.815 21.3067 114.815 20.74C114.815 20.1733 114.929 19.6767 115.155 19.25C115.389 18.8167 115.712 18.4833 116.125 18.25C116.545 18.0167 117.025 17.9 117.565 17.9C118.085 17.9 118.549 18.0133 118.955 18.24C119.362 18.4667 119.679 18.7867 119.905 19.2C120.132 19.6067 120.245 20.0767 120.245 20.61ZM119.055 20.25C119.049 19.83 118.899 19.4933 118.605 19.24C118.312 18.9867 117.949 18.86 117.515 18.86C117.122 18.86 116.785 18.9867 116.505 19.24C116.225 19.4867 116.059 19.8233 116.005 20.25H119.055ZM124.147 17.9C124.581 17.9 124.967 17.99 125.307 18.17C125.654 18.35 125.924 18.6167 126.117 18.97C126.311 19.3233 126.407 19.75 126.407 20.25V23.5H125.277V20.42C125.277 19.9267 125.154 19.55 124.907 19.29C124.661 19.0233 124.324 18.89 123.897 18.89C123.471 18.89 123.131 19.0233 122.877 19.29C122.631 19.55 122.507 19.9267 122.507 20.42V23.5H121.367V17.99H122.507V18.62C122.694 18.3933 122.931 18.2167 123.217 18.09C123.511 17.9633 123.821 17.9 124.147 17.9ZM129.191 18.92V21.97C129.191 22.1767 129.238 22.3267 129.331 22.42C129.431 22.5067 129.598 22.55 129.831 22.55H130.531V23.5H129.631C129.118 23.5 128.725 23.38 128.451 23.14C128.178 22.9 128.041 22.51 128.041 21.97V18.92H127.391V17.99H128.041V16.62H129.191V17.99H130.531V18.92H129.191Z" fill="#071789"/>
<rect x="131" width="56" height="40" fill="white"/>
<path fill-rule="evenodd" clip-rule="evenodd" d="M158.999 15.4541C157.793 15.4541 156.637 15.933 155.784 16.7854C154.932 17.6379 154.453 18.794 154.453 19.9996C154.453 21.2051 154.932 22.3612 155.784 23.2137C156.637 24.0661 157.793 24.545 158.999 24.545C160.204 24.545 161.36 24.0661 162.213 23.2137C163.065 22.3612 163.544 21.2051 163.544 19.9996C163.544 18.794 163.065 17.6379 162.213 16.7854C161.36 15.933 160.204 15.4541 158.999 15.4541ZM156.271 19.9996C156.271 20.7229 156.559 21.4166 157.07 21.928C157.582 22.4395 158.275 22.7268 158.999 22.7268C159.722 22.7268 160.416 22.4395 160.927 21.928C161.439 21.4166 161.726 20.7229 161.726 19.9996C161.726 19.2762 161.439 18.5825 160.927 18.0711C160.416 17.5596 159.722 17.2723 158.999 17.2723C158.275 17.2723 157.582 17.5596 157.07 18.0711C156.559 18.5825 156.271 19.2762 156.271 19.9996Z" fill="#071789"/>
<path d="M164.456 13.6367C164.215 13.6367 163.984 13.7325 163.813 13.903C163.643 14.0735 163.547 14.3047 163.547 14.5458C163.547 14.7869 163.643 15.0181 163.813 15.1886C163.984 15.3591 164.215 15.4549 164.456 15.4549C164.697 15.4549 164.928 15.3591 165.099 15.1886C165.269 15.0181 165.365 14.7869 165.365 14.5458C165.365 14.3047 165.269 14.0735 165.099 13.903C164.928 13.7325 164.697 13.6367 164.456 13.6367Z" fill="#071789"/>
<path fill-rule="evenodd" clip-rule="evenodd" d="M152.636 10C151.672 10 150.747 10.3831 150.065 11.0651C149.383 11.747 149 12.6719 149 13.6364V26.3636C149 27.3281 149.383 28.253 150.065 28.9349C150.747 29.6169 151.672 30 152.636 30H165.364C166.328 30 167.253 29.6169 167.935 28.9349C168.617 28.253 169 27.3281 169 26.3636V13.6364C169 12.6719 168.617 11.747 167.935 11.0651C167.253 10.3831 166.328 10 165.364 10H152.636ZM165.364 11.8182H152.636C152.154 11.8182 151.692 12.0097 151.351 12.3507C151.01 12.6917 150.818 13.1542 150.818 13.6364V26.3636C150.818 26.8458 151.01 27.3083 151.351 27.6493C151.692 27.9903 152.154 28.1818 152.636 28.1818H165.364C165.846 28.1818 166.308 27.9903 166.649 27.6493C166.99 27.3083 167.182 26.8458 167.182 26.3636V13.6364C167.182 13.1542 166.99 12.6917 166.649 12.3507C166.308 12.0097 165.846 11.8182 165.364 11.8182Z" fill="#071789"/>
<path d="M190.208 23.57C189.741 23.57 189.321 23.49 188.948 23.33C188.575 23.1633 188.281 22.93 188.068 22.63C187.855 22.33 187.748 21.98 187.748 21.58H188.968C188.995 21.88 189.111 22.1267 189.318 22.32C189.531 22.5133 189.828 22.61 190.208 22.61C190.601 22.61 190.908 22.5167 191.128 22.33C191.348 22.1367 191.458 21.89 191.458 21.59C191.458 21.3567 191.388 21.1667 191.248 21.02C191.115 20.8733 190.945 20.76 190.738 20.68C190.538 20.6 190.258 20.5133 189.898 20.42C189.445 20.3 189.075 20.18 188.788 20.06C188.508 19.9333 188.268 19.74 188.068 19.48C187.868 19.22 187.768 18.8733 187.768 18.44C187.768 18.04 187.868 17.69 188.068 17.39C188.268 17.09 188.548 16.86 188.908 16.7C189.268 16.54 189.685 16.46 190.158 16.46C190.831 16.46 191.381 16.63 191.808 16.97C192.241 17.3033 192.481 17.7633 192.528 18.35H191.268C191.248 18.0967 191.128 17.88 190.908 17.7C190.688 17.52 190.398 17.43 190.038 17.43C189.711 17.43 189.445 17.5133 189.238 17.68C189.031 17.8467 188.928 18.0867 188.928 18.4C188.928 18.6133 188.991 18.79 189.118 18.93C189.251 19.0633 189.418 19.17 189.618 19.25C189.818 19.33 190.091 19.4167 190.438 19.51C190.898 19.6367 191.271 19.7633 191.558 19.89C191.851 20.0167 192.098 20.2133 192.298 20.48C192.505 20.74 192.608 21.09 192.608 21.53C192.608 21.8833 192.511 22.2167 192.318 22.53C192.131 22.8433 191.855 23.0967 191.488 23.29C191.128 23.4767 190.701 23.57 190.208 23.57ZM196.343 23.59C195.823 23.59 195.353 23.4733 194.933 23.24C194.513 23 194.183 22.6667 193.943 22.24C193.703 21.8067 193.583 21.3067 193.583 20.74C193.583 20.18 193.706 19.6833 193.953 19.25C194.2 18.8167 194.536 18.4833 194.963 18.25C195.39 18.0167 195.866 17.9 196.393 17.9C196.92 17.9 197.396 18.0167 197.823 18.25C198.25 18.4833 198.586 18.8167 198.833 19.25C199.08 19.6833 199.203 20.18 199.203 20.74C199.203 21.3 199.076 21.7967 198.823 22.23C198.57 22.6633 198.223 23 197.783 23.24C197.35 23.4733 196.87 23.59 196.343 23.59ZM196.343 22.6C196.636 22.6 196.91 22.53 197.163 22.39C197.423 22.25 197.633 22.04 197.793 21.76C197.953 21.48 198.033 21.14 198.033 20.74C198.033 20.34 197.956 20.0033 197.803 19.73C197.65 19.45 197.446 19.24 197.193 19.1C196.94 18.96 196.666 18.89 196.373 18.89C196.08 18.89 195.806 18.96 195.553 19.1C195.306 19.24 195.11 19.45 194.963 19.73C194.816 20.0033 194.743 20.34 194.743 20.74C194.743 21.3333 194.893 21.7933 195.193 22.12C195.5 22.44 195.883 22.6 196.343 22.6ZM204.16 23.5L201.47 20.39V23.5H200.33V16.55H201.47V19.72L204.17 16.55H205.6L202.58 20.03L205.65 23.5H204.16ZM207.798 16.1V23.5H206.658V16.1H207.798ZM209.875 17.26C209.668 17.26 209.495 17.19 209.355 17.05C209.215 16.91 209.145 16.7367 209.145 16.53C209.145 16.3233 209.215 16.15 209.355 16.01C209.495 15.87 209.668 15.8 209.875 15.8C210.075 15.8 210.245 15.87 210.385 16.01C210.525 16.15 210.595 16.3233 210.595 16.53C210.595 16.7367 210.525 16.91 210.385 17.05C210.245 17.19 210.075 17.26 209.875 17.26ZM210.435 17.99V23.5H209.295V17.99H210.435ZM214.712 17.9C215.145 17.9 215.532 17.99 215.872 18.17C216.218 18.35 216.488 18.6167 216.682 18.97C216.875 19.3233 216.972 19.75 216.972 20.25V23.5H215.842V20.42C215.842 19.9267 215.718 19.55 215.472 19.29C215.225 19.0233 214.888 18.89 214.462 18.89C214.035 18.89 213.695 19.0233 213.442 19.29C213.195 19.55 213.072 19.9267 213.072 20.42V23.5H211.932V17.99H213.072V18.62C213.258 18.3933 213.495 18.2167 213.782 18.09C214.075 17.9633 214.385 17.9 214.712 17.9ZM220.696 16.55C221.436 16.55 222.082 16.6933 222.636 16.98C223.196 17.26 223.626 17.6667 223.926 18.2C224.232 18.7267 224.386 19.3433 224.386 20.05C224.386 20.7567 224.232 21.37 223.926 21.89C223.626 22.41 223.196 22.81 222.636 23.09C222.082 23.3633 221.436 23.5 220.696 23.5H218.426V16.55H220.696ZM220.696 22.57C221.509 22.57 222.132 22.35 222.566 21.91C222.999 21.47 223.216 20.85 223.216 20.05C223.216 19.2433 222.999 18.6133 222.566 18.16C222.132 17.7067 221.509 17.48 220.696 17.48H219.566V22.57H220.696ZM230.566 20.61C230.566 20.8167 230.552 21.0033 230.526 21.17H226.316C226.349 21.61 226.512 21.9633 226.806 22.23C227.099 22.4967 227.459 22.63 227.886 22.63C228.499 22.63 228.932 22.3733 229.186 21.86H230.416C230.249 22.3667 229.946 22.7833 229.506 23.11C229.072 23.43 228.532 23.59 227.886 23.59C227.359 23.59 226.886 23.4733 226.466 23.24C226.052 23 225.726 22.6667 225.486 22.24C225.252 21.8067 225.136 21.3067 225.136 20.74C225.136 20.1733 225.249 19.6767 225.476 19.25C225.709 18.8167 226.032 18.4833 226.446 18.25C226.866 18.0167 227.346 17.9 227.886 17.9C228.406 17.9 228.869 18.0133 229.276 18.24C229.682 18.4667 229.999 18.7867 230.226 19.2C230.452 19.6067 230.566 20.0767 230.566 20.61ZM229.376 20.25C229.369 19.83 229.219 19.4933 228.926 19.24C228.632 18.9867 228.269 18.86 227.836 18.86C227.442 18.86 227.106 18.9867 226.826 19.24C226.546 19.4867 226.379 19.8233 226.326 20.25H229.376ZM233.018 18.92V21.97C233.018 22.1767 233.064 22.3267 233.158 22.42C233.258 22.5067 233.424 22.55 233.658 22.55H234.358V23.5H233.458C232.944 23.5 232.551 23.38 232.278 23.14C232.004 22.9 231.868 22.51 231.868 21.97V18.92H231.218V17.99H231.868V16.62H233.018V17.99H234.358V18.92H233.018ZM240.458 20.61C240.458 20.8167 240.445 21.0033 240.418 21.17H236.208C236.242 21.61 236.405 21.9633 236.698 22.23C236.992 22.4967 237.352 22.63 237.778 22.63C238.392 22.63 238.825 22.3733 239.078 21.86H240.308C240.142 22.3667 239.838 22.7833 239.398 23.11C238.965 23.43 238.425 23.59 237.778 23.59C237.252 23.59 236.778 23.4733 236.358 23.24C235.945 23 235.618 22.6667 235.378 22.24C235.145 21.8067 235.028 21.3067 235.028 20.74C235.028 20.1733 235.142 19.6767 235.368 19.25C235.602 18.8167 235.925 18.4833 236.338 18.25C236.758 18.0167 237.238 17.9 237.778 17.9C238.298 17.9 238.762 18.0133 239.168 18.24C239.575 18.4667 239.892 18.7867 240.118 19.2C240.345 19.6067 240.458 20.0767 240.458 20.61ZM239.268 20.25C239.262 19.83 239.112 19.4933 238.818 19.24C238.525 18.9867 238.162 18.86 237.728 18.86C237.335 18.86 236.998 18.9867 236.718 19.24C236.438 19.4867 236.272 19.8233 236.218 20.25H239.268ZM242.72 18.79C242.887 18.51 243.107 18.2933 243.38 18.14C243.66 17.98 243.99 17.9 244.37 17.9V19.08H244.08C243.633 19.08 243.293 19.1933 243.06 19.42C242.833 19.6467 242.72 20.04 242.72 20.6V23.5H241.58V17.99H242.72V18.79ZM247.638 17.9C248.065 17.9 248.441 17.9867 248.768 18.16C249.101 18.3267 249.361 18.5367 249.548 18.79V17.99H250.698V23.59C250.698 24.0967 250.591 24.5467 250.378 24.94C250.165 25.34 249.855 25.6533 249.448 25.88C249.048 26.1067 248.568 26.22 248.008 26.22C247.261 26.22 246.641 26.0433 246.148 25.69C245.655 25.3433 245.375 24.87 245.308 24.27H246.438C246.525 24.5567 246.708 24.7867 246.988 24.96C247.275 25.14 247.615 25.23 248.008 25.23C248.468 25.23 248.838 25.09 249.118 24.81C249.405 24.53 249.548 24.1233 249.548 23.59V22.67C249.355 22.93 249.091 23.15 248.758 23.33C248.431 23.5033 248.058 23.59 247.638 23.59C247.158 23.59 246.718 23.47 246.318 23.23C245.925 22.9833 245.611 22.6433 245.378 22.21C245.151 21.77 245.038 21.2733 245.038 20.72C245.038 20.1667 245.151 19.6767 245.378 19.25C245.611 18.8233 245.925 18.4933 246.318 18.26C246.718 18.02 247.158 17.9 247.638 17.9ZM249.548 20.74C249.548 20.36 249.468 20.03 249.308 19.75C249.155 19.47 248.951 19.2567 248.698 19.11C248.445 18.9633 248.171 18.89 247.878 18.89C247.585 18.89 247.311 18.9633 247.058 19.11C246.805 19.25 246.598 19.46 246.438 19.74C246.285 20.0133 246.208 20.34 246.208 20.72C246.208 21.1 246.285 21.4333 246.438 21.72C246.598 22.0067 246.805 22.2267 247.058 22.38C247.318 22.5267 247.591 22.6 247.878 22.6C248.171 22.6 248.445 22.5267 248.698 22.38C248.951 22.2333 249.155 22.02 249.308 21.74C249.468 21.4533 249.548 21.12 249.548 20.74ZM257.245 20.61C257.245 20.8167 257.232 21.0033 257.205 21.17H252.995C253.029 21.61 253.192 21.9633 253.485 22.23C253.779 22.4967 254.139 22.63 254.565 22.63C255.179 22.63 255.612 22.3733 255.865 21.86H257.095C256.929 22.3667 256.625 22.7833 256.185 23.11C255.752 23.43 255.212 23.59 254.565 23.59C254.039 23.59 253.565 23.4733 253.145 23.24C252.732 23 252.405 22.6667 252.165 22.24C251.932 21.8067 251.815 21.3067 251.815 20.74C251.815 20.1733 251.929 19.6767 252.155 19.25C252.389 18.8167 252.712 18.4833 253.125 18.25C253.545 18.0167 254.025 17.9 254.565 17.9C255.085 17.9 255.549 18.0133 255.955 18.24C256.362 18.4667 256.679 18.7867 256.905 19.2C257.132 19.6067 257.245 20.0767 257.245 20.61ZM256.055 20.25C256.049 19.83 255.899 19.4933 255.605 19.24C255.312 18.9867 254.949 18.86 254.515 18.86C254.122 18.86 253.785 18.9867 253.505 19.24C253.225 19.4867 253.059 19.8233 253.005 20.25H256.055ZM261.147 17.9C261.581 17.9 261.967 17.99 262.307 18.17C262.654 18.35 262.924 18.6167 263.117 18.97C263.311 19.3233 263.407 19.75 263.407 20.25V23.5H262.277V20.42C262.277 19.9267 262.154 19.55 261.907 19.29C261.661 19.0233 261.324 18.89 260.897 18.89C260.471 18.89 260.131 19.0233 259.877 19.29C259.631 19.55 259.507 19.9267 259.507 20.42V23.5H258.367V17.99H259.507V18.62C259.694 18.3933 259.931 18.2167 260.217 18.09C260.511 17.9633 260.821 17.9 261.147 17.9ZM266.191 18.92V21.97C266.191 22.1767 266.238 22.3267 266.331 22.42C266.431 22.5067 266.598 22.55 266.831 22.55H267.531V23.5H266.631C266.118 23.5 265.725 23.38 265.451 23.14C265.178 22.9 265.041 22.51 265.041 21.97V18.92H264.391V17.99H265.041V16.62H266.191V17.99H267.531V18.92H266.191Z" fill="#071789"/>
<rect x="268" width="56" height="40" fill="white"/>
<path d="M298.923 16.5254H293.077C291.93 16.5254 291 17.4454 291 18.5794V21.4694C291 22.6044 291.93 23.5234 293.077 23.5234H298.923C300.07 23.5234 301 22.6034 301 21.4694V18.5794C301 17.4444 300.07 16.5254 298.923 16.5254ZM297.519 20.1654L294.784 21.4554C294.767 21.4633 294.749 21.4669 294.73 21.4657C294.712 21.4646 294.694 21.4589 294.678 21.449C294.663 21.4391 294.65 21.4255 294.641 21.4093C294.632 21.3931 294.627 21.3749 294.627 21.3564V18.6964C294.627 18.6776 294.632 18.6593 294.641 18.643C294.651 18.6267 294.664 18.613 294.68 18.6033C294.696 18.5936 294.714 18.5881 294.733 18.5874C294.752 18.5868 294.77 18.5909 294.787 18.5994L297.521 19.9694C297.539 19.9788 297.554 19.993 297.564 20.0104C297.575 20.0278 297.58 20.0477 297.58 20.068C297.58 20.0883 297.574 20.1081 297.563 20.1253C297.552 20.1425 297.537 20.1564 297.519 20.1654Z" fill="#071789"/>
<path d="M290 12C289.47 12 288.961 12.2107 288.586 12.5858C288.211 12.9609 288 13.4696 288 14V26C288 26.5304 288.211 27.0391 288.586 27.4142C288.961 27.7893 289.47 28 290 28H302C302.53 28 303.039 27.7893 303.414 27.4142C303.789 27.0391 304 26.5304 304 26V14C304 13.4696 303.789 12.9609 303.414 12.5858C303.039 12.2107 302.53 12 302 12H290ZM290 10H302C303.061 10 304.078 10.4214 304.828 11.1716C305.579 11.9217 306 12.9391 306 14V26C306 27.0609 305.579 28.0783 304.828 28.8284C304.078 29.5786 303.061 30 302 30H290C288.939 30 287.922 29.5786 287.172 28.8284C286.421 28.0783 286 27.0609 286 26V14C286 12.9391 286.421 11.9217 287.172 11.1716C287.922 10.4214 288.939 10 290 10V10Z" fill="#071789"/>
<path d="M327.11 23.57C326.644 23.57 326.224 23.49 325.85 23.33C325.477 23.1633 325.184 22.93 324.97 22.63C324.757 22.33 324.65 21.98 324.65 21.58H325.87C325.897 21.88 326.014 22.1267 326.22 22.32C326.434 22.5133 326.73 22.61 327.11 22.61C327.504 22.61 327.81 22.5167 328.03 22.33C328.25 22.1367 328.36 21.89 328.36 21.59C328.36 21.3567 328.29 21.1667 328.15 21.02C328.017 20.8733 327.847 20.76 327.64 20.68C327.44 20.6 327.16 20.5133 326.8 20.42C326.347 20.3 325.977 20.18 325.69 20.06C325.41 19.9333 325.17 19.74 324.97 19.48C324.77 19.22 324.67 18.8733 324.67 18.44C324.67 18.04 324.77 17.69 324.97 17.39C325.17 17.09 325.45 16.86 325.81 16.7C326.17 16.54 326.587 16.46 327.06 16.46C327.734 16.46 328.284 16.63 328.71 16.97C329.144 17.3033 329.384 17.7633 329.43 18.35H328.17C328.15 18.0967 328.03 17.88 327.81 17.7C327.59 17.52 327.3 17.43 326.94 17.43C326.614 17.43 326.347 17.5133 326.14 17.68C325.934 17.8467 325.83 18.0867 325.83 18.4C325.83 18.6133 325.894 18.79 326.02 18.93C326.154 19.0633 326.32 19.17 326.52 19.25C326.72 19.33 326.994 19.4167 327.34 19.51C327.8 19.6367 328.174 19.7633 328.46 19.89C328.754 20.0167 329 20.2133 329.2 20.48C329.407 20.74 329.51 21.09 329.51 21.53C329.51 21.8833 329.414 22.2167 329.22 22.53C329.034 22.8433 328.757 23.0967 328.39 23.29C328.03 23.4767 327.604 23.57 327.11 23.57ZM333.245 23.59C332.725 23.59 332.255 23.4733 331.835 23.24C331.415 23 331.085 22.6667 330.845 22.24C330.605 21.8067 330.485 21.3067 330.485 20.74C330.485 20.18 330.609 19.6833 330.855 19.25C331.102 18.8167 331.439 18.4833 331.865 18.25C332.292 18.0167 332.769 17.9 333.295 17.9C333.822 17.9 334.299 18.0167 334.725 18.25C335.152 18.4833 335.489 18.8167 335.735 19.25C335.982 19.6833 336.105 20.18 336.105 20.74C336.105 21.3 335.979 21.7967 335.725 22.23C335.472 22.6633 335.125 23 334.685 23.24C334.252 23.4733 333.772 23.59 333.245 23.59ZM333.245 22.6C333.539 22.6 333.812 22.53 334.065 22.39C334.325 22.25 334.535 22.04 334.695 21.76C334.855 21.48 334.935 21.14 334.935 20.74C334.935 20.34 334.859 20.0033 334.705 19.73C334.552 19.45 334.349 19.24 334.095 19.1C333.842 18.96 333.569 18.89 333.275 18.89C332.982 18.89 332.709 18.96 332.455 19.1C332.209 19.24 332.012 19.45 331.865 19.73C331.719 20.0033 331.645 20.34 331.645 20.74C331.645 21.3333 331.795 21.7933 332.095 22.12C332.402 22.44 332.785 22.6 333.245 22.6ZM343.66 23.5L340.97 20.39V23.5H339.83V16.55H340.97V19.72L343.67 16.55H345.1L342.08 20.03L345.15 23.5H343.66ZM347.298 16.1V23.5H346.158V16.1H347.298ZM349.375 17.26C349.168 17.26 348.995 17.19 348.855 17.05C348.715 16.91 348.645 16.7367 348.645 16.53C348.645 16.3233 348.715 16.15 348.855 16.01C348.995 15.87 349.168 15.8 349.375 15.8C349.575 15.8 349.745 15.87 349.885 16.01C350.025 16.15 350.095 16.3233 350.095 16.53C350.095 16.7367 350.025 16.91 349.885 17.05C349.745 17.19 349.575 17.26 349.375 17.26ZM349.935 17.99V23.5H348.795V17.99H349.935ZM354.212 17.9C354.645 17.9 355.032 17.99 355.372 18.17C355.718 18.35 355.988 18.6167 356.182 18.97C356.375 19.3233 356.472 19.75 356.472 20.25V23.5H355.342V20.42C355.342 19.9267 355.218 19.55 354.972 19.29C354.725 19.0233 354.388 18.89 353.962 18.89C353.535 18.89 353.195 19.0233 352.942 19.29C352.695 19.55 352.572 19.9267 352.572 20.42V23.5H351.432V17.99H352.572V18.62C352.758 18.3933 352.995 18.2167 353.282 18.09C353.575 17.9633 353.885 17.9 354.212 17.9ZM362.793 16.55C363.533 16.55 364.18 16.6933 364.733 16.98C365.293 17.26 365.723 17.6667 366.023 18.2C366.33 18.7267 366.483 19.3433 366.483 20.05C366.483 20.7567 366.33 21.37 366.023 21.89C365.723 22.41 365.293 22.81 364.733 23.09C364.18 23.3633 363.533 23.5 362.793 23.5H360.523V16.55H362.793ZM362.793 22.57C363.607 22.57 364.23 22.35 364.663 21.91C365.097 21.47 365.313 20.85 365.313 20.05C365.313 19.2433 365.097 18.6133 364.663 18.16C364.23 17.7067 363.607 17.48 362.793 17.48H361.663V22.57H362.793ZM372.663 20.61C372.663 20.8167 372.65 21.0033 372.623 21.17H368.413C368.447 21.61 368.61 21.9633 368.903 22.23C369.197 22.4967 369.557 22.63 369.983 22.63C370.597 22.63 371.03 22.3733 371.283 21.86H372.513C372.347 22.3667 372.043 22.7833 371.603 23.11C371.17 23.43 370.63 23.59 369.983 23.59C369.457 23.59 368.983 23.4733 368.563 23.24C368.15 23 367.823 22.6667 367.583 22.24C367.35 21.8067 367.233 21.3067 367.233 20.74C367.233 20.1733 367.347 19.6767 367.573 19.25C367.807 18.8167 368.13 18.4833 368.543 18.25C368.963 18.0167 369.443 17.9 369.983 17.9C370.503 17.9 370.967 18.0133 371.373 18.24C371.78 18.4667 372.097 18.7867 372.323 19.2C372.55 19.6067 372.663 20.0767 372.663 20.61ZM371.473 20.25C371.467 19.83 371.317 19.4933 371.023 19.24C370.73 18.9867 370.367 18.86 369.933 18.86C369.54 18.86 369.203 18.9867 368.923 19.24C368.643 19.4867 368.477 19.8233 368.423 20.25H371.473ZM375.115 18.92V21.97C375.115 22.1767 375.162 22.3267 375.255 22.42C375.355 22.5067 375.522 22.55 375.755 22.55H376.455V23.5H375.555C375.042 23.5 374.648 23.38 374.375 23.14C374.102 22.9 373.965 22.51 373.965 21.97V18.92H373.315V17.99H373.965V16.62H375.115V17.99H376.455V18.92H375.115ZM382.556 20.61C382.556 20.8167 382.543 21.0033 382.516 21.17H378.306C378.339 21.61 378.503 21.9633 378.796 22.23C379.089 22.4967 379.449 22.63 379.876 22.63C380.489 22.63 380.923 22.3733 381.176 21.86H382.406C382.239 22.3667 381.936 22.7833 381.496 23.11C381.063 23.43 380.523 23.59 379.876 23.59C379.349 23.59 378.876 23.4733 378.456 23.24C378.043 23 377.716 22.6667 377.476 22.24C377.243 21.8067 377.126 21.3067 377.126 20.74C377.126 20.1733 377.239 19.6767 377.466 19.25C377.699 18.8167 378.023 18.4833 378.436 18.25C378.856 18.0167 379.336 17.9 379.876 17.9C380.396 17.9 380.859 18.0133 381.266 18.24C381.673 18.4667 381.989 18.7867 382.216 19.2C382.443 19.6067 382.556 20.0767 382.556 20.61ZM381.366 20.25C381.359 19.83 381.209 19.4933 380.916 19.24C380.623 18.9867 380.259 18.86 379.826 18.86C379.433 18.86 379.096 18.9867 378.816 19.24C378.536 19.4867 378.369 19.8233 378.316 20.25H381.366ZM384.818 18.79C384.984 18.51 385.204 18.2933 385.478 18.14C385.758 17.98 386.088 17.9 386.468 17.9V19.08H386.178C385.731 19.08 385.391 19.1933 385.158 19.42C384.931 19.6467 384.818 20.04 384.818 20.6V23.5H383.678V17.99H384.818V18.79ZM389.736 17.9C390.162 17.9 390.539 17.9867 390.866 18.16C391.199 18.3267 391.459 18.5367 391.646 18.79V17.99H392.796V23.59C392.796 24.0967 392.689 24.5467 392.476 24.94C392.262 25.34 391.952 25.6533 391.546 25.88C391.146 26.1067 390.666 26.22 390.106 26.22C389.359 26.22 388.739 26.0433 388.246 25.69C387.752 25.3433 387.472 24.87 387.406 24.27H388.536C388.622 24.5567 388.806 24.7867 389.086 24.96C389.372 25.14 389.712 25.23 390.106 25.23C390.566 25.23 390.936 25.09 391.216 24.81C391.502 24.53 391.646 24.1233 391.646 23.59V22.67C391.452 22.93 391.189 23.15 390.856 23.33C390.529 23.5033 390.156 23.59 389.736 23.59C389.256 23.59 388.816 23.47 388.416 23.23C388.022 22.9833 387.709 22.6433 387.476 22.21C387.249 21.77 387.136 21.2733 387.136 20.72C387.136 20.1667 387.249 19.6767 387.476 19.25C387.709 18.8233 388.022 18.4933 388.416 18.26C388.816 18.02 389.256 17.9 389.736 17.9ZM391.646 20.74C391.646 20.36 391.566 20.03 391.406 19.75C391.252 19.47 391.049 19.2567 390.796 19.11C390.542 18.9633 390.269 18.89 389.976 18.89C389.682 18.89 389.409 18.9633 389.156 19.11C388.902 19.25 388.696 19.46 388.536 19.74C388.382 20.0133 388.306 20.34 388.306 20.72C388.306 21.1 388.382 21.4333 388.536 21.72C388.696 22.0067 388.902 22.2267 389.156 22.38C389.416 22.5267 389.689 22.6 389.976 22.6C390.269 22.6 390.542 22.5267 390.796 22.38C391.049 22.2333 391.252 22.02 391.406 21.74C391.566 21.4533 391.646 21.12 391.646 20.74ZM399.343 20.61C399.343 20.8167 399.33 21.0033 399.303 21.17H395.093C395.126 21.61 395.29 21.9633 395.583 22.23C395.876 22.4967 396.236 22.63 396.663 22.63C397.276 22.63 397.71 22.3733 397.963 21.86H399.193C399.026 22.3667 398.723 22.7833 398.283 23.11C397.85 23.43 397.31 23.59 396.663 23.59C396.136 23.59 395.663 23.4733 395.243 23.24C394.83 23 394.503 22.6667 394.263 22.24C394.03 21.8067 393.913 21.3067 393.913 20.74C393.913 20.1733 394.026 19.6767 394.253 19.25C394.486 18.8167 394.81 18.4833 395.223 18.25C395.643 18.0167 396.123 17.9 396.663 17.9C397.183 17.9 397.646 18.0133 398.053 18.24C398.46 18.4667 398.776 18.7867 399.003 19.2C399.23 19.6067 399.343 20.0767 399.343 20.61ZM398.153 20.25C398.146 19.83 397.996 19.4933 397.703 19.24C397.41 18.9867 397.046 18.86 396.613 18.86C396.22 18.86 395.883 18.9867 395.603 19.24C395.323 19.4867 395.156 19.8233 395.103 20.25H398.153ZM403.245 17.9C403.678 17.9 404.065 17.99 404.405 18.17C404.752 18.35 405.022 18.6167 405.215 18.97C405.408 19.3233 405.505 19.75 405.505 20.25V23.5H404.375V20.42C404.375 19.9267 404.252 19.55 404.005 19.29C403.758 19.0233 403.422 18.89 402.995 18.89C402.568 18.89 402.228 19.0233 401.975 19.29C401.728 19.55 401.605 19.9267 401.605 20.42V23.5H400.465V17.99H401.605V18.62C401.792 18.3933 402.028 18.2167 402.315 18.09C402.608 17.9633 402.918 17.9 403.245 17.9ZM408.289 18.92V21.97C408.289 22.1767 408.336 22.3267 408.429 22.42C408.529 22.5067 408.696 22.55 408.929 22.55H409.629V23.5H408.729C408.216 23.5 407.822 23.38 407.549 23.14C407.276 22.9 407.139 22.51 407.139 21.97V18.92H406.489V17.99H407.139V16.62H408.289V17.99H409.629V18.92H408.289Z" fill="#071789"/>
</svg>
