<svg width="20" height="20" viewBox="0 0 20 20" fill="none" xmlns="http://www.w3.org/2000/svg">
<path d="M4 2C3.46957 2 2.96086 2.21071 2.58579 2.58579C2.21071 2.96086 2 3.46957 2 4V16C2 16.5304 2.21071 17.0391 2.58579 17.4142C2.96086 17.7893 3.46957 18 4 18H16C16.5304 18 17.0391 17.7893 17.4142 17.4142C17.7893 17.0391 18 16.5304 18 16V4C18 3.46957 17.7893 2.96086 17.4142 2.58579C17.0391 2.21071 16.5304 2 16 2H4ZM4 0H16C17.0609 0 18.0783 0.421427 18.8284 1.17157C19.5786 1.92172 20 2.93913 20 4V16C20 17.0609 19.5786 18.0783 18.8284 18.8284C18.0783 19.5786 17.0609 20 16 20H4C2.93913 20 1.92172 19.5786 1.17157 18.8284C0.421427 18.0783 0 17.0609 0 16V4C0 2.93913 0.421427 1.92172 1.17157 1.17157C1.92172 0.421427 2.93913 0 4 0V0Z" fill="#071789"/>
<path d="M12.0135 7.85215C12.7854 8.40569 13.7306 8.73141 14.7515 8.73141V7.17938C14.1816 7.05756 13.6771 6.75869 13.2978 6.34299C12.6485 5.93638 12.1807 5.26559 12.0436 4.48047H10.6123V12.3558C10.609 13.2739 9.86661 14.0173 8.95105 14.0173C8.41153 14.0173 7.93222 13.7592 7.62866 13.3594C7.08659 13.0848 6.71486 12.5211 6.71486 11.8702C6.71486 10.9495 7.45852 10.2031 8.37605 10.2031C8.55185 10.2031 8.72128 10.2306 8.88022 10.2812V8.71218C6.90985 8.75303 5.3252 10.3687 5.3252 12.3558C5.3252 13.3478 5.71981 14.247 6.36028 14.9041C6.93807 15.2934 7.63362 15.5205 8.38196 15.5205C10.3876 15.5205 12.0135 13.8888 12.0135 11.8759V7.85215H12.0135Z" fill="#071789"/>
<path d="M14.7513 7.1789V6.75924C14.2374 6.76002 13.7336 6.61559 13.2976 6.34247C13.6835 6.76653 14.1918 7.05893 14.7513 7.1789ZM12.0433 4.47999C12.0303 4.40496 12.0202 4.32943 12.0132 4.25361V4H10.037V11.8754C10.0339 12.7934 9.29146 13.5368 8.37582 13.5368C8.107 13.5368 7.85319 13.4727 7.62842 13.359C7.93198 13.7587 8.4113 14.0168 8.95082 14.0168C9.8663 14.0168 10.6089 13.2735 10.6121 12.3554V4.47999H12.0433ZM8.88007 8.7117V8.26495C8.71494 8.2423 8.54845 8.23093 8.38177 8.23101C6.37596 8.23097 4.75 9.86269 4.75 11.8754C4.75 13.1373 5.38903 14.2493 6.36008 14.9035C5.71962 14.2465 5.325 13.3472 5.325 12.3553C5.325 10.3683 6.90962 8.75256 8.88007 8.7117Z" fill="#071789"/>
</svg>
