<svg width="21" height="20" viewBox="0 0 21 20" fill="none" xmlns="http://www.w3.org/2000/svg">
<path d="M13.5724 6.52539H7.72641C6.57941 6.52539 5.64941 7.44539 5.64941 8.57939V11.4694C5.64941 12.6044 6.57941 13.5234 7.72641 13.5234H13.5724C14.7194 13.5234 15.6494 12.6034 15.6494 11.4694V8.57939C15.6494 7.44439 14.7194 6.52539 13.5724 6.52539ZM12.1684 10.1654L9.43341 11.4554C9.41668 11.4633 9.39823 11.4669 9.37976 11.4657C9.36128 11.4646 9.34339 11.4589 9.32774 11.449C9.31209 11.4391 9.29918 11.4255 9.29021 11.4093C9.28123 11.3931 9.27649 11.3749 9.27641 11.3564V8.69639C9.27658 8.67765 9.28153 8.65926 9.2908 8.64297C9.30008 8.62667 9.31335 8.61302 9.32938 8.6033C9.34541 8.59359 9.36366 8.58813 9.38239 8.58744C9.40112 8.58676 9.41972 8.59087 9.43641 8.59939L12.1704 9.96939C12.1884 9.97879 12.2034 9.99297 12.2138 10.0104C12.2243 10.0278 12.2297 10.0477 12.2295 10.068C12.2293 10.0883 12.2234 10.1081 12.2127 10.1253C12.2019 10.1425 12.1866 10.1564 12.1684 10.1654Z" fill="#484848"/>
<path d="M4.64941 2C4.11898 2 3.61027 2.21071 3.2352 2.58579C2.86013 2.96086 2.64941 3.46957 2.64941 4V16C2.64941 16.5304 2.86013 17.0391 3.2352 17.4142C3.61027 17.7893 4.11898 18 4.64941 18H16.6494C17.1798 18 17.6886 17.7893 18.0636 17.4142C18.4387 17.0391 18.6494 16.5304 18.6494 16V4C18.6494 3.46957 18.4387 2.96086 18.0636 2.58579C17.6886 2.21071 17.1798 2 16.6494 2H4.64941ZM4.64941 0H16.6494C17.7103 0 18.7277 0.421427 19.4778 1.17157C20.228 1.92172 20.6494 2.93913 20.6494 4V16C20.6494 17.0609 20.228 18.0783 19.4778 18.8284C18.7277 19.5786 17.7103 20 16.6494 20H4.64941C3.58855 20 2.57113 19.5786 1.82099 18.8284C1.07084 18.0783 0.649414 17.0609 0.649414 16V4C0.649414 2.93913 1.07084 1.92172 1.82099 1.17157C2.57113 0.421427 3.58855 0 4.64941 0V0Z" fill="#484848"/>
</svg>
